<svg id="svg" version="1.1" xmlns="http://www.w3.org/2000/svg" xmlns:xlink="http://www.w3.org/1999/xlink" width="400" height="225" viewBox="0, 0, 400,225"><g id="svgg"><path id="path0" d="M39.762 90.514 C 39.721 90.554,39.172 90.644,38.542 90.713 C 37.911 90.782,37.255 90.882,37.083 90.935 C 36.911 90.987,36.443 91.077,36.042 91.134 C 35.641 91.191,34.961 91.324,34.531 91.430 C 34.102 91.536,33.750 91.574,33.750 91.515 C 33.750 91.456,33.633 91.496,33.490 91.603 C 33.346 91.711,32.963 91.816,32.638 91.836 C 32.312 91.857,31.937 91.942,31.804 92.025 C 31.671 92.109,31.337 92.208,31.061 92.246 C 30.785 92.284,30.294 92.452,29.970 92.620 C 29.645 92.788,29.308 92.927,29.221 92.930 C 28.828 92.942,27.930 93.235,26.875 93.695 C 23.181 95.305,21.633 96.052,21.287 96.394 C 21.136 96.544,20.916 96.667,20.799 96.667 C 20.681 96.667,20.326 96.851,20.009 97.077 C 19.692 97.303,19.372 97.428,19.299 97.355 C 19.226 97.282,19.167 97.321,19.167 97.441 C 19.167 97.561,19.003 97.719,18.802 97.792 C 18.206 98.007,16.411 99.150,15.181 100.098 C 14.879 100.331,14.327 100.755,13.955 101.042 C 9.734 104.285,5.334 109.496,3.973 112.865 C 3.823 113.237,3.617 113.542,3.516 113.542 C 3.416 113.542,3.333 113.710,3.333 113.917 C 3.333 114.123,3.246 114.381,3.140 114.490 C 3.033 114.598,2.791 115.109,2.603 115.625 C 2.130 116.916,1.436 118.997,1.352 119.375 C 1.313 119.547,1.268 119.688,1.250 119.688 C 1.233 119.688,1.180 119.922,1.132 120.208 C 1.084 120.495,0.983 120.964,0.909 121.250 C 0.834 121.536,0.755 121.911,0.732 122.083 C 0.710 122.255,0.628 122.677,0.550 123.021 C 0.217 124.491,0.159 125.346,0.096 129.792 C 0.032 134.283,0.088 135.199,0.602 138.038 C 1.106 140.824,3.266 145.721,4.680 147.283 C 4.856 147.478,5.000 147.725,5.000 147.833 C 5.000 148.762,11.573 154.418,14.183 155.735 C 14.804 156.048,15.359 156.375,15.417 156.460 C 15.474 156.545,16.177 156.870,16.979 157.180 C 17.781 157.491,18.746 157.884,19.122 158.053 C 19.866 158.386,21.579 158.862,23.229 159.194 C 24.704 159.490,25.036 159.562,25.625 159.716 C 26.459 159.934,34.444 160.001,35.226 159.796 C 35.617 159.694,36.453 159.520,37.083 159.410 C 37.714 159.300,38.464 159.155,38.750 159.088 C 40.830 158.600,40.608 158.662,41.276 158.383 C 41.577 158.258,42.222 158.048,42.710 157.916 C 43.198 157.785,43.748 157.597,43.934 157.499 C 45.062 156.901,48.046 155.558,48.177 155.589 C 48.263 155.609,48.333 155.546,48.333 155.450 C 48.333 155.354,48.564 155.170,48.846 155.042 C 49.427 154.777,49.381 155.034,48.565 156.620 C 47.456 158.777,47.310 159.115,47.435 159.240 C 47.509 159.314,50.772 159.375,54.687 159.375 L 61.805 159.375 62.035 158.906 C 62.162 158.648,62.329 158.203,62.407 157.917 C 62.485 157.630,62.672 157.255,62.822 157.083 C 62.972 156.911,63.106 156.702,63.120 156.619 C 63.147 156.452,63.955 154.599,64.644 153.125 C 64.885 152.609,65.064 152.117,65.041 152.031 C 65.018 151.945,65.094 151.875,65.208 151.875 C 65.323 151.875,65.417 151.733,65.417 151.560 C 65.417 151.386,65.495 151.082,65.591 150.883 C 66.671 148.644,67.753 146.272,67.799 146.042 C 67.811 145.984,68.038 145.469,68.305 144.896 C 69.532 142.264,69.987 141.278,70.440 140.270 L 70.926 139.186 78.640 139.177 C 87.360 139.167,86.799 139.061,86.955 140.750 C 87.019 141.447,87.134 142.182,87.211 142.382 C 87.288 142.582,87.366 142.901,87.386 143.091 C 87.406 143.282,87.485 143.766,87.561 144.167 C 87.638 144.568,87.741 145.177,87.789 145.521 C 87.997 146.984,88.364 149.170,88.646 150.625 C 89.018 152.544,89.181 153.470,89.471 155.313 C 89.525 155.656,89.693 156.688,89.845 157.604 L 90.122 159.271 101.838 159.325 L 113.555 159.378 113.965 158.422 C 114.191 157.895,114.426 157.176,114.488 156.823 C 114.551 156.470,114.665 156.079,114.743 155.955 C 114.821 155.831,114.899 155.628,114.918 155.505 C 115.008 154.916,115.952 152.173,116.102 152.064 C 116.195 151.996,116.252 151.856,116.228 151.752 C 116.204 151.648,116.238 151.422,116.305 151.250 C 116.543 150.637,117.385 147.807,117.421 147.500 C 117.450 147.250,118.194 144.982,119.540 141.042 C 119.598 140.870,119.670 140.618,119.699 140.481 C 119.789 140.054,120.258 138.655,120.382 138.441 C 120.448 138.329,120.516 138.094,120.534 137.920 C 120.553 137.746,121.127 135.917,121.810 133.854 C 122.494 131.792,123.363 129.073,123.742 127.813 C 124.121 126.552,124.679 124.766,124.982 123.844 L 125.534 122.166 125.872 123.323 C 126.058 123.959,126.408 125.229,126.649 126.146 C 126.890 127.063,127.129 127.953,127.181 128.125 C 127.401 128.855,127.904 130.769,128.002 131.250 C 128.096 131.710,128.605 133.724,128.844 134.583 C 129.698 137.645,130.828 141.889,130.952 142.500 C 131.010 142.786,131.120 143.208,131.196 143.438 C 131.272 143.667,131.346 143.901,131.361 143.958 C 131.376 144.016,131.464 144.333,131.557 144.664 C 131.650 144.995,131.743 145.417,131.762 145.602 C 131.809 146.035,132.044 146.945,132.420 148.143 C 132.584 148.668,132.756 149.278,132.802 149.497 C 132.899 149.965,133.306 151.581,134.056 154.479 C 134.353 155.625,134.641 156.771,134.697 157.026 C 134.752 157.281,134.879 157.703,134.978 157.963 C 135.183 158.501,135.208 158.624,135.208 159.063 C 135.208 159.331,135.877 159.375,139.976 159.375 L 144.743 159.375 144.854 158.906 C 144.980 158.379,145.540 156.779,145.821 156.146 C 145.923 155.917,146.174 155.214,146.379 154.583 C 146.585 153.953,146.824 153.337,146.912 153.215 C 147.092 152.964,148.104 150.145,148.272 149.427 C 148.332 149.169,148.480 148.958,148.601 148.958 C 148.721 148.958,148.767 148.906,148.703 148.842 C 148.607 148.746,149.136 147.177,149.894 145.313 C 149.987 145.083,150.087 144.778,150.117 144.635 C 150.147 144.491,150.357 143.976,150.583 143.489 C 150.810 143.002,151.044 142.417,151.104 142.188 C 151.164 141.958,151.693 140.552,152.280 139.063 C 152.866 137.573,153.634 135.557,153.986 134.583 C 155.966 129.109,156.343 128.113,157.140 126.250 C 157.263 125.964,157.477 125.354,157.615 124.896 C 157.754 124.438,158.293 123.055,158.815 121.823 C 159.336 120.591,159.704 119.583,159.631 119.583 C 159.559 119.583,159.612 119.471,159.750 119.333 C 159.887 119.196,160.000 118.920,160.000 118.721 C 160.000 118.521,160.088 118.303,160.196 118.237 C 160.303 118.170,160.382 118.282,160.370 118.485 C 160.358 118.688,160.461 119.510,160.599 120.313 C 160.736 121.115,160.888 122.099,160.936 122.500 C 160.983 122.901,161.078 123.557,161.145 123.958 C 161.213 124.359,161.306 124.969,161.353 125.313 C 161.400 125.656,161.540 126.641,161.664 127.500 C 161.788 128.359,161.933 129.438,161.986 129.896 C 162.038 130.354,162.130 130.964,162.189 131.250 C 162.460 132.568,162.728 134.219,162.797 135.000 C 162.822 135.286,162.904 135.896,162.980 136.354 C 163.055 136.813,163.173 137.607,163.242 138.121 C 163.311 138.634,163.408 139.119,163.457 139.199 C 163.506 139.278,163.590 139.843,163.642 140.453 C 163.695 141.063,163.794 141.844,163.863 142.188 C 163.932 142.531,164.021 143.094,164.063 143.438 C 164.222 144.764,164.397 145.989,164.615 147.292 C 164.892 148.951,164.965 149.454,165.081 150.521 C 165.131 150.979,165.223 151.589,165.286 151.875 C 165.350 152.161,165.459 152.865,165.530 153.438 C 165.810 155.692,166.417 159.403,166.523 159.509 C 166.608 159.594,218.577 159.619,218.658 159.534 C 218.732 159.456,219.764 153.238,220.136 150.625 C 220.560 147.651,220.564 147.626,220.741 146.839 C 220.949 145.923,221.004 145.019,220.851 145.036 C 220.784 145.043,215.397 145.038,208.880 145.025 L 197.030 145.000 197.179 144.115 C 197.336 143.174,197.381 142.844,197.593 141.059 C 197.666 140.439,197.773 139.855,197.830 139.763 C 197.888 139.670,197.979 139.241,198.034 138.808 C 198.089 138.375,198.232 137.458,198.352 136.771 C 198.576 135.488,198.685 134.626,198.726 133.802 L 198.750 133.333 209.271 133.333 C 215.057 133.333,219.792 133.304,219.792 133.267 C 219.792 133.231,219.888 132.679,220.006 132.040 C 220.124 131.402,220.273 130.471,220.337 129.971 C 220.400 129.471,220.475 128.922,220.504 128.750 C 220.532 128.578,220.629 127.922,220.719 127.292 C 220.809 126.661,220.921 125.958,220.969 125.729 C 221.017 125.500,221.099 124.984,221.151 124.583 C 221.203 124.182,221.309 123.479,221.387 123.021 C 221.465 122.563,221.547 122.047,221.569 121.875 C 221.592 121.703,221.681 121.141,221.767 120.625 C 222.101 118.634,223.379 118.861,211.497 118.800 L 201.015 118.746 201.145 117.758 C 201.313 116.483,201.391 115.998,201.541 115.277 C 201.608 114.953,201.716 114.125,201.781 113.438 C 201.846 112.750,201.944 112.031,202.000 111.840 C 202.151 111.318,202.277 110.626,202.409 109.583 C 202.474 109.068,202.592 108.292,202.670 107.859 L 202.813 107.072 214.792 107.026 C 225.277 106.985,226.772 106.940,226.776 106.667 C 226.779 106.495,226.840 106.260,226.911 106.146 C 226.983 106.031,227.116 105.281,227.207 104.479 C 227.299 103.677,227.386 102.974,227.401 102.917 C 227.468 102.659,227.710 101.287,227.805 100.625 C 227.862 100.224,227.957 99.661,228.016 99.375 C 228.232 98.326,228.350 97.586,228.431 96.771 C 228.476 96.313,228.563 95.703,228.624 95.417 C 228.684 95.130,228.817 94.357,228.919 93.698 L 229.104 92.500 209.968 92.500 C 199.444 92.500,190.821 92.570,190.807 92.656 C 190.792 92.742,190.759 93.006,190.733 93.244 C 190.707 93.481,190.625 93.996,190.552 94.389 C 190.478 94.783,190.365 95.526,190.300 96.042 C 190.174 97.045,189.860 98.939,189.680 99.792 C 189.619 100.078,189.483 100.969,189.377 101.771 C 189.272 102.573,189.136 103.510,189.075 103.854 C 188.693 106.022,188.513 107.154,188.340 108.494 C 188.232 109.327,188.098 110.084,188.041 110.175 C 187.984 110.267,187.882 110.898,187.812 111.577 C 187.743 112.257,187.647 112.953,187.598 113.125 C 187.550 113.297,187.460 113.766,187.400 114.167 C 187.251 115.158,186.446 120.211,186.355 120.729 C 186.314 120.958,186.222 121.609,186.149 122.176 C 186.076 122.742,185.973 123.275,185.920 123.361 C 185.867 123.447,185.773 124.062,185.711 124.727 C 185.649 125.393,185.472 126.594,185.317 127.396 C 185.162 128.198,184.970 129.370,184.889 130.000 C 184.809 130.630,184.702 131.333,184.653 131.563 C 184.604 131.792,184.523 132.260,184.474 132.604 C 184.361 133.393,183.962 136.121,183.818 137.083 C 183.758 137.484,183.672 137.872,183.628 137.945 C 183.541 138.086,183.151 140.608,183.005 141.972 C 182.956 142.426,182.874 142.942,182.823 143.118 C 182.771 143.294,182.676 143.816,182.611 144.279 C 182.546 144.742,182.442 145.351,182.380 145.633 C 182.266 146.153,181.940 148.376,181.755 149.896 C 181.699 150.354,181.603 150.870,181.540 151.042 C 181.478 151.214,181.387 151.776,181.340 152.292 C 181.221 153.572,181.056 154.600,180.939 154.790 C 180.885 154.877,180.790 155.358,180.727 155.859 C 180.664 156.361,180.576 156.958,180.531 157.188 C 180.485 157.417,180.441 157.831,180.433 158.108 C 180.424 158.385,180.365 158.560,180.303 158.497 C 180.167 158.361,180.066 157.202,179.906 153.958 C 179.841 152.641,179.738 151.141,179.676 150.625 C 179.562 149.663,179.472 148.508,179.269 145.417 C 179.147 143.552,179.038 142.168,178.851 140.104 C 178.789 139.417,178.692 138.010,178.636 136.979 C 178.515 134.746,178.411 133.388,178.254 131.979 C 178.191 131.406,178.086 130.094,178.021 129.063 C 177.862 126.508,177.756 125.088,177.631 123.854 C 177.573 123.281,177.471 121.875,177.405 120.729 C 177.339 119.583,177.242 118.224,177.188 117.708 C 177.135 117.193,177.040 115.974,176.976 115.000 C 176.913 114.026,176.809 112.526,176.745 111.667 C 176.681 110.807,176.602 109.635,176.569 109.063 C 176.536 108.490,176.440 107.271,176.355 106.354 C 176.270 105.438,176.175 104.266,176.144 103.750 C 176.031 101.868,175.816 98.831,175.731 97.917 C 175.569 96.163,175.355 93.231,175.348 92.665 L 175.341 92.101 166.957 92.088 L 158.572 92.075 158.430 92.548 C 158.247 93.153,157.778 94.259,157.272 95.280 C 157.054 95.721,156.875 96.252,156.875 96.461 C 156.875 96.669,156.805 96.872,156.719 96.910 C 156.515 97.000,154.585 101.444,154.653 101.667 C 154.670 101.724,154.427 102.209,154.113 102.745 C 153.799 103.281,153.542 103.814,153.542 103.929 C 153.542 104.044,153.254 104.777,152.903 105.558 C 152.255 107.002,152.182 107.172,151.574 108.646 C 151.385 109.104,151.138 109.646,151.026 109.850 C 150.914 110.054,150.602 110.804,150.334 111.517 C 149.857 112.782,148.860 115.093,147.707 117.604 C 147.392 118.292,146.732 119.839,146.242 121.042 C 145.751 122.245,145.229 123.417,145.081 123.646 C 144.933 123.875,144.819 124.139,144.827 124.232 C 144.836 124.326,144.697 124.701,144.519 125.066 C 144.341 125.431,143.935 126.358,143.617 127.127 C 143.119 128.332,142.839 128.687,142.803 128.160 C 142.798 128.083,142.727 127.693,142.646 127.292 C 142.479 126.467,142.491 126.528,141.758 122.708 C 141.461 121.161,141.074 119.193,140.898 118.333 C 140.722 117.474,140.586 116.583,140.597 116.354 C 140.607 116.125,140.484 115.469,140.322 114.896 C 139.987 113.701,139.320 110.073,139.337 109.535 C 139.343 109.337,139.259 109.120,139.150 109.052 C 139.041 108.985,138.995 108.859,139.049 108.772 C 139.103 108.685,139.008 108.019,138.838 107.293 C 138.669 106.566,138.490 105.683,138.442 105.329 C 138.393 104.976,138.252 104.219,138.128 103.646 C 137.835 102.290,137.742 101.800,137.514 100.417 C 137.410 99.786,137.178 98.575,136.999 97.724 C 136.820 96.873,136.629 95.842,136.574 95.432 C 136.519 95.023,136.416 94.453,136.345 94.167 C 136.273 93.880,136.191 93.387,136.162 93.072 C 136.079 92.180,136.156 92.191,129.618 92.124 C 121.704 92.043,122.233 91.932,121.670 93.787 C 121.422 94.602,121.095 95.467,120.943 95.708 C 120.790 95.949,120.598 96.468,120.516 96.862 C 120.434 97.257,120.044 98.428,119.650 99.467 C 119.255 100.505,118.906 101.448,118.873 101.563 C 118.840 101.677,118.761 101.911,118.696 102.083 C 118.595 102.354,118.128 103.674,116.449 108.438 C 116.246 109.010,115.930 109.831,115.746 110.260 C 115.562 110.690,115.454 111.042,115.506 111.042 C 115.559 111.042,115.325 111.711,114.988 112.529 C 114.651 113.346,114.375 114.090,114.375 114.182 C 114.375 114.273,114.267 114.612,114.135 114.934 C 114.002 115.257,113.865 115.615,113.830 115.729 C 113.440 117.000,113.058 118.088,112.899 118.386 C 112.792 118.587,112.365 119.759,111.949 120.990 C 111.534 122.222,111.098 123.464,110.979 123.750 C 110.861 124.036,110.748 124.318,110.729 124.375 C 110.709 124.432,110.632 124.620,110.557 124.792 C 110.384 125.190,109.697 127.210,109.140 128.958 C 108.903 129.703,108.539 130.734,108.333 131.250 C 107.986 132.114,107.692 132.870,107.604 133.125 C 107.584 133.182,107.513 133.370,107.446 133.542 C 107.141 134.321,106.398 136.475,106.009 137.708 C 105.774 138.453,105.510 139.156,105.422 139.271 C 105.289 139.446,104.573 141.426,104.462 141.927 C 104.443 142.013,104.408 142.107,104.385 142.135 C 104.362 142.164,104.315 142.331,104.280 142.505 C 104.246 142.680,103.981 143.430,103.692 144.172 C 103.403 144.914,103.128 145.658,103.079 145.825 C 102.995 146.118,102.617 144.475,102.398 142.865 C 102.180 141.260,102.051 140.501,101.877 139.792 C 101.778 139.391,101.639 138.594,101.568 138.021 C 101.409 136.740,101.321 136.182,100.943 134.063 C 100.780 133.146,100.587 131.976,100.514 131.463 C 100.442 130.950,100.350 130.478,100.312 130.415 C 100.273 130.352,100.138 129.553,100.013 128.640 C 99.721 126.520,99.611 125.853,99.444 125.208 C 99.242 124.427,99.211 124.235,98.947 122.195 C 98.813 121.159,98.666 120.125,98.620 119.896 C 98.267 118.124,97.938 116.222,97.810 115.214 C 97.760 114.816,97.626 114.019,97.512 113.443 C 97.399 112.867,97.251 111.974,97.184 111.458 C 97.117 110.943,97.022 110.380,96.972 110.208 C 96.923 110.036,96.833 109.502,96.773 109.021 C 96.713 108.540,96.587 107.931,96.493 107.667 C 96.399 107.403,96.298 106.719,96.269 106.146 C 96.240 105.573,96.088 104.542,95.931 103.854 C 95.775 103.167,95.601 102.229,95.544 101.771 C 95.375 100.393,95.194 99.288,95.088 98.976 C 95.032 98.814,94.939 98.346,94.881 97.935 C 94.822 97.524,94.688 96.719,94.582 96.146 C 94.384 95.078,94.184 93.761,94.106 93.021 C 94.010 92.107,93.858 92.091,85.175 92.096 L 76.913 92.101 76.600 92.874 C 76.427 93.298,75.849 94.583,75.315 95.729 C 73.939 98.683,73.750 99.109,73.750 99.255 C 73.750 99.326,73.456 100.015,73.097 100.786 C 72.739 101.557,72.324 102.469,72.176 102.813 C 71.312 104.820,70.781 106.006,70.512 106.527 C 70.345 106.852,70.208 107.196,70.208 107.293 C 70.208 107.390,69.869 108.203,69.454 109.099 C 69.039 109.996,68.684 110.837,68.664 110.969 C 68.644 111.100,68.507 111.353,68.359 111.531 C 68.212 111.709,68.069 111.976,68.043 112.125 C 68.016 112.274,67.780 112.865,67.517 113.438 C 67.044 114.469,66.784 115.057,65.997 116.875 C 65.774 117.391,65.412 118.198,65.192 118.669 C 64.972 119.140,64.792 119.572,64.792 119.629 C 64.792 119.687,64.492 120.380,64.127 121.169 C 63.761 121.958,63.454 122.651,63.444 122.708 C 63.435 122.766,63.228 123.234,62.984 123.750 C 61.995 125.841,61.250 127.527,61.253 127.666 C 61.255 127.746,61.027 128.281,60.746 128.854 C 59.795 130.797,59.306 131.941,59.306 132.221 C 59.306 132.374,59.237 132.500,59.153 132.500 C 59.070 132.500,58.657 133.389,58.236 134.476 C 57.815 135.563,57.383 136.506,57.277 136.572 C 57.170 136.637,57.083 136.828,57.083 136.996 C 57.083 137.164,56.708 138.105,56.250 139.088 C 55.792 140.071,55.417 140.929,55.417 140.995 C 55.417 141.061,55.101 141.778,54.716 142.589 C 54.330 143.399,53.437 145.375,52.731 146.979 C 51.823 149.043,51.482 149.652,51.567 149.063 C 51.633 148.604,51.734 147.760,51.792 147.188 C 51.851 146.615,51.982 145.865,52.085 145.521 C 52.187 145.177,52.328 144.340,52.396 143.661 C 52.465 142.981,52.566 142.353,52.621 142.265 C 52.676 142.176,52.731 141.748,52.743 141.312 C 52.756 140.877,52.855 140.408,52.964 140.270 C 53.072 140.131,53.114 139.942,53.057 139.849 C 52.999 139.757,53.030 139.260,53.124 138.747 C 53.420 137.142,53.693 135.411,54.061 132.813 C 54.126 132.354,54.220 131.786,54.271 131.550 C 54.321 131.315,54.423 130.611,54.498 129.988 C 54.572 129.364,54.677 128.778,54.732 128.686 C 54.786 128.594,54.870 128.008,54.918 127.384 L 55.006 126.250 42.190 126.250 C 32.088 126.250,29.371 126.305,29.354 126.510 C 29.250 127.789,29.149 128.511,28.861 130.022 C 28.273 133.111,27.693 136.991,27.634 138.229 L 27.604 138.854 32.875 138.910 C 35.773 138.940,38.104 139.034,38.053 139.118 C 37.972 139.254,37.876 139.843,37.594 141.949 C 37.550 142.276,37.452 142.739,37.376 142.978 C 37.301 143.216,37.209 143.719,37.173 144.094 C 37.014 145.726,36.646 145.920,32.435 146.587 C 31.575 146.723,28.353 146.701,27.896 146.556 C 27.702 146.494,27.242 146.406,26.874 146.359 C 23.309 145.908,16.888 141.991,16.877 140.260 C 16.876 140.117,16.781 140.000,16.667 140.000 C 16.552 140.000,16.458 139.859,16.458 139.688 C 16.458 139.516,16.349 139.375,16.215 139.375 C 16.082 139.375,16.035 139.312,16.112 139.236 C 16.188 139.159,16.096 138.925,15.906 138.715 C 15.716 138.505,15.628 138.333,15.710 138.333 C 15.793 138.333,15.673 137.982,15.444 137.552 C 13.952 134.746,13.285 128.775,14.135 125.833 C 14.250 125.432,14.455 124.682,14.588 124.167 C 15.103 122.180,16.437 119.525,17.932 117.513 C 19.157 115.864,23.122 111.660,23.128 112.004 C 23.130 112.105,23.200 112.086,23.284 111.961 C 23.981 110.931,28.197 108.624,32.604 106.862 C 33.302 106.583,37.375 105.461,37.708 105.455 C 37.880 105.452,38.255 105.394,38.542 105.326 C 38.828 105.258,39.531 105.152,40.104 105.091 C 40.677 105.031,41.615 104.902,42.188 104.805 C 43.682 104.553,50.180 104.746,51.667 105.087 C 51.953 105.153,52.516 105.261,52.917 105.327 C 53.918 105.493,55.858 106.034,56.311 106.274 C 56.516 106.383,56.766 106.422,56.866 106.360 C 56.966 106.298,57.080 106.343,57.118 106.459 C 57.157 106.576,57.400 106.711,57.658 106.761 C 57.916 106.811,58.210 106.903,58.313 106.966 C 58.415 107.030,58.608 106.262,58.742 105.259 C 58.876 104.257,59.069 103.203,59.170 102.917 C 59.272 102.630,59.413 101.740,59.483 100.938 C 59.554 100.135,59.694 99.245,59.794 98.958 C 59.894 98.672,60.026 97.875,60.087 97.188 C 60.149 96.500,60.247 95.750,60.305 95.521 C 60.363 95.292,60.444 94.713,60.485 94.234 L 60.559 93.364 58.998 92.810 C 57.488 92.274,57.155 92.178,56.042 91.960 C 55.755 91.904,54.958 91.719,54.271 91.550 C 52.991 91.235,52.269 91.111,50.625 90.922 C 50.109 90.863,49.547 90.760,49.375 90.692 C 49.041 90.561,39.888 90.391,39.762 90.514 M346.042 91.990 C 346.042 92.167,346.202 92.612,346.397 92.979 C 346.592 93.346,346.733 93.716,346.710 93.802 C 346.686 93.888,346.760 93.958,346.875 93.958 C 346.990 93.958,347.083 94.074,347.083 94.215 C 347.083 94.357,347.313 94.943,347.593 95.518 C 349.231 98.874,350.098 100.779,350.155 101.146 C 350.191 101.375,350.311 101.594,350.423 101.632 C 350.534 101.670,350.625 101.837,350.625 102.004 C 350.625 102.170,350.786 102.551,350.982 102.851 C 351.178 103.151,351.361 103.544,351.387 103.725 C 351.414 103.907,351.534 104.088,351.655 104.128 C 351.776 104.168,351.875 104.363,351.875 104.560 C 351.875 104.757,352.102 105.382,352.379 105.949 C 352.657 106.515,353.322 107.917,353.858 109.063 C 354.394 110.208,355.152 111.818,355.541 112.640 C 355.931 113.462,356.250 114.189,356.250 114.257 C 356.250 114.403,357.461 117.021,358.458 119.032 C 358.848 119.817,359.167 120.584,359.167 120.736 C 359.167 120.888,359.286 121.136,359.431 121.287 C 359.576 121.439,359.868 121.984,360.079 122.500 C 360.290 123.016,360.840 124.262,361.300 125.269 L 362.138 127.100 361.878 128.706 C 361.736 129.590,361.595 130.500,361.566 130.729 C 361.537 130.958,361.436 131.615,361.342 132.188 C 361.247 132.760,361.160 133.323,361.148 133.438 C 361.136 133.552,361.054 134.115,360.966 134.688 C 360.878 135.260,360.767 136.010,360.719 136.354 C 360.617 137.089,360.474 137.812,360.334 138.298 C 360.279 138.489,360.172 139.255,360.096 140.000 C 360.020 140.745,359.922 141.413,359.878 141.484 C 359.808 141.601,359.729 142.144,359.474 144.271 C 359.433 144.615,359.340 145.130,359.269 145.417 C 359.197 145.703,359.057 146.547,358.958 147.292 C 358.859 148.036,358.725 148.880,358.659 149.167 C 358.593 149.453,358.452 150.250,358.345 150.938 C 358.238 151.625,358.088 152.563,358.013 153.021 C 357.937 153.479,357.844 154.089,357.806 154.375 C 357.589 156.007,357.408 157.101,357.176 158.172 L 357.053 158.739 363.968 158.797 C 371.813 158.862,371.087 159.033,371.328 157.063 C 371.389 156.558,371.487 155.924,371.546 155.653 C 371.604 155.382,371.709 154.632,371.780 153.986 C 371.850 153.341,371.987 152.484,372.084 152.083 C 372.181 151.682,372.317 150.885,372.385 150.313 C 372.564 148.800,372.750 147.457,372.846 146.979 C 372.892 146.750,372.974 146.141,373.029 145.625 C 373.083 145.109,373.220 144.219,373.332 143.646 C 373.445 143.073,373.575 142.182,373.622 141.667 C 373.669 141.151,373.760 140.495,373.824 140.208 C 373.959 139.611,374.176 138.110,374.263 137.173 C 374.296 136.821,374.378 136.352,374.446 136.131 C 374.514 135.910,374.621 135.253,374.685 134.671 C 374.749 134.089,374.839 133.418,374.885 133.180 C 374.931 132.941,375.036 132.292,375.118 131.738 C 375.205 131.144,375.532 130.344,375.912 129.792 C 376.267 129.276,376.559 128.807,376.562 128.750 C 376.564 128.693,377.026 127.943,377.589 127.083 C 378.151 126.224,378.965 124.958,379.398 124.271 C 379.830 123.583,380.362 122.786,380.581 122.500 C 380.799 122.214,381.226 121.531,381.530 120.983 C 382.192 119.789,382.755 118.893,382.932 118.750 C 383.004 118.693,383.320 118.177,383.635 117.604 C 383.950 117.031,384.339 116.414,384.500 116.234 C 384.660 116.053,384.792 115.838,384.792 115.756 C 384.792 115.579,385.656 114.324,385.903 114.143 C 385.999 114.073,386.066 113.954,386.053 113.878 C 386.040 113.803,386.174 113.532,386.351 113.277 C 387.280 111.934,388.580 109.870,388.611 109.688 C 388.630 109.573,388.810 109.357,389.010 109.207 C 389.211 109.057,389.375 108.799,389.375 108.634 C 389.375 108.469,389.458 108.333,389.559 108.333 C 389.660 108.333,389.800 108.169,389.870 107.969 C 390.048 107.455,391.099 105.693,391.521 105.200 C 391.716 104.973,391.875 104.740,391.875 104.682 C 391.875 104.573,393.355 102.266,393.543 102.083 C 393.805 101.827,394.792 100.198,394.792 100.020 C 394.792 99.912,395.005 99.559,395.266 99.235 C 395.526 98.911,395.878 98.365,396.047 98.021 C 396.215 97.677,396.432 97.338,396.529 97.268 C 396.625 97.197,396.813 96.956,396.946 96.732 C 397.423 95.928,398.452 94.293,399.219 93.121 C 399.648 92.464,400.000 91.868,400.000 91.797 C 400.000 91.629,384.308 91.626,383.871 91.793 C 383.690 91.863,383.542 92.004,383.542 92.107 C 383.542 92.211,383.260 92.684,382.917 93.158 C 382.573 93.633,382.292 94.147,382.292 94.302 C 382.292 94.457,382.198 94.583,382.083 94.583 C 381.969 94.583,381.875 94.673,381.875 94.782 C 381.875 94.974,381.065 96.294,380.628 96.814 C 380.512 96.953,380.417 97.122,380.417 97.190 C 380.417 97.258,379.995 97.960,379.479 98.750 C 378.964 99.540,378.542 100.248,378.542 100.323 C 378.542 100.399,378.307 100.740,378.019 101.081 C 377.732 101.423,377.550 101.788,377.615 101.893 C 377.680 101.998,377.651 102.083,377.551 102.083 C 377.450 102.083,377.140 102.467,376.861 102.936 C 376.177 104.088,376.075 104.251,374.942 105.992 C 374.401 106.824,373.958 107.556,373.958 107.620 C 373.958 107.684,373.724 108.043,373.438 108.419 C 373.151 108.795,372.917 109.168,372.917 109.250 C 372.917 109.331,372.555 109.932,372.113 110.584 C 371.670 111.237,371.101 112.178,370.848 112.676 C 370.371 113.615,370.249 113.668,370.118 112.989 C 370.028 112.522,368.928 109.745,367.928 107.459 C 367.693 106.921,367.500 106.341,367.500 106.170 C 367.500 105.998,367.413 105.804,367.307 105.739 C 367.201 105.673,367.005 105.269,366.872 104.841 C 366.739 104.413,366.492 103.734,366.322 103.333 C 365.983 102.533,365.840 102.182,365.341 100.938 C 364.754 99.472,364.515 98.858,364.471 98.698 C 364.447 98.612,364.408 98.518,364.386 98.490 C 364.363 98.461,364.304 98.223,364.256 97.962 C 364.207 97.700,364.019 97.260,363.838 96.983 C 363.656 96.707,363.519 96.427,363.533 96.361 C 363.546 96.296,363.421 95.939,363.255 95.569 C 363.089 95.199,362.838 94.521,362.698 94.063 C 362.558 93.604,362.267 92.878,362.051 92.448 L 361.658 91.667 353.850 91.667 C 346.937 91.667,346.042 91.704,346.042 91.990 M325.762 92.224 C 325.739 92.247,325.113 92.314,324.371 92.374 C 322.935 92.489,320.380 93.003,319.688 93.315 C 319.011 93.620,317.421 94.203,317.083 94.270 C 316.686 94.348,314.023 95.765,313.750 96.044 C 313.693 96.102,313.290 96.336,312.855 96.564 C 312.419 96.793,311.792 97.227,311.460 97.529 C 311.129 97.832,310.805 98.027,310.741 97.963 C 310.677 97.900,310.625 97.957,310.625 98.090 C 310.625 98.224,310.527 98.333,310.407 98.333 C 310.287 98.333,309.971 98.568,309.706 98.854 C 309.440 99.141,309.167 99.375,309.098 99.375 C 308.788 99.375,304.049 104.454,304.199 104.626 C 304.228 104.660,304.022 104.931,303.741 105.229 C 303.155 105.848,301.693 108.134,301.293 109.054 C 301.145 109.395,300.956 109.724,300.874 109.785 C 300.697 109.916,299.506 112.278,299.458 112.594 C 299.439 112.714,299.141 113.469,298.796 114.271 C 298.450 115.073,298.010 116.292,297.817 116.979 C 297.624 117.667,297.381 118.464,297.276 118.750 C 297.171 119.036,297.043 119.618,296.991 120.041 C 296.939 120.465,296.806 121.168,296.696 121.604 C 296.387 122.822,296.016 126.344,295.968 128.530 C 295.919 130.732,296.427 136.319,296.720 136.793 C 296.783 136.895,296.890 137.475,296.958 138.080 C 297.025 138.686,297.210 139.436,297.369 139.747 C 297.528 140.058,297.728 140.638,297.814 141.035 C 297.900 141.432,298.042 141.901,298.131 142.076 C 298.219 142.252,298.554 143.052,298.875 143.854 C 299.196 144.656,299.721 145.729,300.042 146.239 C 300.363 146.748,300.625 147.259,300.625 147.373 C 300.625 147.571,301.630 149.155,301.895 149.375 C 301.964 149.432,302.058 149.583,302.104 149.711 C 303.010 152.228,309.925 157.667,314.063 159.117 C 314.406 159.237,314.875 159.407,315.104 159.494 C 317.781 160.511,324.032 160.857,326.875 160.145 C 327.047 160.102,327.563 159.990,328.021 159.897 C 328.479 159.803,329.158 159.599,329.530 159.444 C 329.902 159.289,330.254 159.163,330.312 159.164 C 330.369 159.166,330.440 159.159,330.469 159.151 C 330.497 159.142,330.693 159.102,330.903 159.062 C 331.438 158.961,333.372 158.052,335.304 156.995 C 335.529 156.871,335.841 156.654,335.996 156.510 C 336.152 156.367,336.364 156.250,336.467 156.250 C 336.689 156.250,339.916 153.863,340.532 153.243 C 340.767 153.006,341.330 152.474,341.782 152.059 C 342.710 151.209,342.913 150.982,344.856 148.616 C 345.623 147.683,346.250 146.865,346.250 146.797 C 346.250 146.730,346.702 145.993,347.254 145.160 C 348.449 143.357,349.434 141.667,349.288 141.667 C 349.231 141.667,349.434 141.174,349.739 140.573 C 350.044 139.971,350.312 139.374,350.333 139.245 C 350.354 139.116,350.515 138.695,350.689 138.308 C 350.863 137.921,351.119 137.229,351.257 136.771 C 351.396 136.313,351.591 135.848,351.692 135.740 C 351.793 135.631,351.875 135.329,351.875 135.070 C 351.875 134.810,352.013 134.191,352.182 133.693 C 352.490 132.785,352.764 131.464,352.786 130.781 C 352.792 130.581,352.878 130.417,352.976 130.417 C 353.074 130.417,353.132 130.206,353.103 129.948 C 353.075 129.690,353.128 128.870,353.221 128.125 C 353.472 126.117,353.507 121.138,353.282 119.475 C 353.175 118.675,353.090 117.838,353.096 117.615 C 353.111 116.976,351.636 111.362,351.433 111.285 C 351.332 111.247,351.250 111.026,351.250 110.795 C 351.250 110.564,351.095 110.033,350.906 109.615 C 349.721 106.993,349.286 106.128,349.083 105.993 C 348.957 105.909,348.931 105.838,349.025 105.837 C 349.118 105.835,349.025 105.575,348.816 105.260 C 348.608 104.944,348.344 104.538,348.229 104.357 C 345.943 100.752,340.677 95.625,339.260 95.625 C 339.094 95.625,338.958 95.536,338.958 95.427 C 338.958 95.114,335.475 93.543,334.080 93.226 C 333.861 93.176,333.252 93.001,332.726 92.837 C 331.426 92.429,326.031 91.955,325.762 92.224 M250.766 93.073 C 250.637 93.292,250.455 94.285,250.302 95.605 C 250.231 96.224,250.124 96.927,250.066 97.167 C 250.007 97.407,249.924 97.929,249.881 98.326 C 249.838 98.722,249.751 99.181,249.688 99.345 C 249.572 99.647,249.285 101.525,249.042 103.572 C 248.969 104.185,248.873 104.750,248.828 104.826 C 248.783 104.903,248.689 105.512,248.619 106.181 C 248.549 106.849,248.401 107.509,248.290 107.647 C 248.180 107.785,248.145 107.988,248.212 108.098 C 248.280 108.207,248.202 108.938,248.038 109.721 C 247.875 110.505,247.680 111.750,247.606 112.489 C 247.531 113.228,247.396 113.978,247.304 114.156 C 247.212 114.334,247.022 115.414,246.881 116.557 C 246.740 117.700,246.585 118.825,246.536 119.057 C 246.452 119.455,245.919 122.823,245.761 123.958 C 245.721 124.245,245.629 124.807,245.556 125.208 C 245.484 125.609,245.384 126.219,245.336 126.563 C 245.128 128.027,244.767 130.080,244.696 130.194 C 244.654 130.262,244.561 130.895,244.489 131.601 C 244.352 132.938,244.254 133.544,244.082 134.131 C 244.026 134.323,243.923 135.042,243.853 135.729 C 243.784 136.417,243.638 137.379,243.528 137.869 C 243.419 138.358,243.289 139.061,243.239 139.431 C 243.156 140.042,242.633 143.559,242.395 145.104 C 242.342 145.448,242.202 146.198,242.083 146.771 C 241.965 147.344,241.821 148.141,241.763 148.542 C 241.706 148.943,241.621 149.505,241.576 149.792 C 241.348 151.215,241.054 153.109,240.944 153.854 C 240.877 154.313,240.719 155.297,240.593 156.042 C 240.181 158.471,240.093 159.059,240.099 159.328 C 240.104 159.573,271.111 159.723,272.952 159.487 C 275.376 159.176,279.075 157.859,280.282 156.877 C 280.495 156.704,280.682 156.603,280.699 156.654 C 280.730 156.746,281.778 156.114,282.227 155.732 C 282.364 155.616,282.824 155.286,283.250 155.000 C 284.359 154.255,287.910 150.691,288.646 149.583 C 288.989 149.068,289.321 148.599,289.384 148.542 C 291.025 147.053,293.265 138.152,292.294 136.983 C 292.198 136.866,292.125 136.724,292.133 136.667 C 292.192 136.217,291.759 134.304,291.426 133.542 C 290.621 131.700,289.576 129.771,289.167 129.375 C 289.108 129.318,288.816 128.942,288.517 128.540 C 288.218 128.139,287.441 127.278,286.791 126.628 L 285.609 125.446 286.555 124.442 C 287.514 123.422,291.026 118.389,291.131 117.881 C 291.163 117.729,291.329 117.276,291.501 116.875 C 291.944 115.842,292.139 115.344,292.195 115.104 C 292.222 114.990,292.402 114.358,292.595 113.701 C 292.787 113.043,292.890 112.417,292.823 112.309 C 292.756 112.201,292.776 112.066,292.867 112.010 C 293.126 111.850,293.012 108.361,292.702 106.979 C 292.548 106.292,292.415 105.682,292.407 105.625 C 292.322 105.020,290.701 101.964,289.812 100.734 C 289.084 99.727,286.667 97.134,286.667 97.360 C 286.667 97.421,286.325 97.150,285.908 96.757 C 285.491 96.363,285.076 96.042,284.986 96.042 C 284.895 96.042,284.698 95.923,284.546 95.779 C 284.395 95.634,283.568 95.175,282.708 94.758 C 281.313 94.081,280.312 93.713,278.214 93.103 C 277.444 92.879,250.897 92.850,250.766 93.073 M330.245 105.753 C 330.397 105.848,330.695 105.953,330.907 105.986 C 331.120 106.019,331.531 106.232,331.821 106.460 C 332.111 106.688,332.476 106.875,332.632 106.875 C 332.789 106.875,332.917 106.969,332.917 107.083 C 332.917 107.198,333.033 107.292,333.175 107.292 C 333.449 107.292,336.042 109.943,336.042 110.223 C 336.042 110.313,336.162 110.511,336.309 110.662 C 336.923 111.294,338.132 114.152,338.731 116.386 C 339.530 119.362,339.595 125.473,338.857 128.125 C 338.842 128.182,338.658 128.979,338.450 129.896 C 338.241 130.813,337.983 131.733,337.875 131.941 C 337.767 132.149,337.645 132.497,337.603 132.714 C 337.481 133.349,335.677 137.293,335.414 137.500 C 335.271 137.613,334.943 138.335,334.914 138.601 C 334.904 138.691,334.793 138.832,334.667 138.914 C 334.540 138.996,334.202 139.438,333.915 139.896 C 333.337 140.818,330.608 143.691,329.792 144.236 C 326.638 146.343,326.190 146.559,324.069 146.998 C 320.644 147.706,317.351 146.724,314.937 144.274 C 313.667 142.986,313.489 142.777,312.968 141.968 C 312.732 141.601,311.425 139.001,311.351 138.750 C 311.334 138.693,311.247 138.365,311.158 138.021 C 311.069 137.677,310.875 137.021,310.728 136.563 C 310.006 134.324,309.699 128.387,310.191 126.213 C 310.312 125.677,310.465 124.793,310.530 124.249 C 310.596 123.706,310.741 123.090,310.853 122.880 C 310.965 122.671,311.001 122.500,310.933 122.500 C 310.864 122.500,310.882 122.383,310.972 122.240 C 311.062 122.096,311.167 121.745,311.206 121.458 C 311.244 121.172,311.364 120.848,311.471 120.740 C 311.579 120.631,311.667 120.342,311.667 120.097 C 311.667 119.853,311.737 119.582,311.823 119.497 C 311.909 119.411,311.987 119.278,311.997 119.201 C 312.044 118.837,313.071 116.677,314.093 114.792 C 314.676 113.716,315.723 112.244,316.226 111.791 C 316.468 111.572,316.667 111.302,316.667 111.191 C 316.667 110.971,318.597 109.058,319.402 108.479 C 321.898 106.685,322.496 106.388,324.918 105.742 C 326.623 105.288,329.508 105.294,330.245 105.753 M274.795 107.848 C 275.807 108.334,276.875 109.219,276.875 109.573 C 276.875 109.693,276.960 109.792,277.064 109.792 C 277.634 109.792,278.018 112.777,277.643 114.299 C 277.199 116.099,275.609 117.850,273.542 118.816 L 272.188 119.448 266.406 119.537 C 262.176 119.601,260.625 119.562,260.625 119.388 C 260.625 119.258,260.863 117.772,261.154 116.086 C 261.445 114.400,261.718 112.786,261.760 112.500 C 261.802 112.214,261.936 111.491,262.057 110.894 C 262.292 109.738,262.556 107.993,262.564 107.537 C 262.574 107.004,273.621 107.285,274.795 107.848 M82.402 115.104 C 82.628 116.564,82.654 116.705,82.805 117.292 C 82.878 117.578,82.984 118.047,83.041 118.333 C 83.098 118.620,83.194 119.089,83.256 119.375 C 83.318 119.661,83.392 120.036,83.421 120.208 C 83.450 120.380,83.579 121.036,83.707 121.667 C 83.836 122.297,83.990 123.141,84.050 123.542 C 84.213 124.634,84.338 125.189,84.468 125.399 C 84.532 125.502,84.527 125.736,84.458 125.919 C 84.325 126.263,76.458 126.449,76.458 126.107 C 76.458 126.029,76.656 125.537,76.898 125.014 C 77.801 123.059,78.303 121.936,78.955 120.417 C 79.324 119.557,79.804 118.456,80.022 117.969 C 80.240 117.482,80.403 117.061,80.385 117.032 C 80.366 117.003,80.596 116.519,80.896 115.956 C 81.196 115.393,81.392 114.854,81.333 114.758 C 81.274 114.662,81.315 114.583,81.423 114.583 C 81.532 114.583,81.686 114.327,81.765 114.013 C 81.949 113.277,82.179 113.670,82.402 115.104 M271.979 133.638 C 273.536 133.892,273.694 133.952,274.816 134.719 C 277.542 136.584,278.661 140.677,276.933 142.463 C 276.787 142.614,276.667 142.802,276.667 142.879 C 276.665 143.870,273.415 145.877,270.938 146.417 C 269.346 146.764,256.220 146.671,256.328 146.313 C 256.390 146.107,256.492 145.469,256.554 144.896 C 256.615 144.323,256.755 143.432,256.864 142.917 C 256.973 142.401,257.112 141.557,257.173 141.042 C 257.234 140.526,257.427 139.260,257.603 138.229 C 257.779 137.198,257.969 136.026,258.024 135.625 C 258.080 135.224,258.165 134.708,258.213 134.479 C 258.262 134.250,258.309 133.922,258.318 133.750 C 258.335 133.420,270.047 133.324,271.979 133.638 " stroke="none" fill="#3c3c9c" fill-rule="evenodd"></path><path id="path1" d="M159.003 176.462 C 146.186 179.820,146.246 197.555,159.085 200.839 C 161.603 201.483,238.605 201.483,241.123 200.839 C 254.187 197.498,253.872 179.142,240.702 176.352 C 238.177 175.817,161.069 175.921,159.003 176.462 M239.892 179.690 C 249.942 181.819,249.751 196.014,239.650 197.694 C 238.617 197.865,227.553 197.914,199.167 197.871 L 160.104 197.813 158.936 197.365 C 150.074 193.972,150.958 181.705,160.208 179.701 C 162.292 179.250,237.765 179.240,239.892 179.690 M159.469 182.763 C 159.414 182.908,159.393 185.650,159.424 188.857 L 159.479 194.688 161.354 194.688 L 163.229 194.688 163.333 190.846 L 163.438 187.005 165.709 190.691 C 168.443 195.127,168.104 194.823,170.240 194.748 L 171.979 194.688 171.979 188.646 L 171.979 182.604 170.057 182.544 L 168.134 182.484 168.078 186.380 L 168.021 190.276 165.854 186.753 C 164.662 184.815,163.545 183.065,163.373 182.865 C 162.980 182.407,159.639 182.320,159.469 182.763 M173.839 182.777 C 173.777 182.938,173.755 183.575,173.790 184.191 L 173.854 185.313 175.729 185.313 L 177.604 185.313 177.604 183.958 L 177.604 182.604 175.778 182.544 C 174.358 182.497,173.926 182.549,173.839 182.777 M225.833 184.669 L 225.833 186.854 225.058 186.530 C 222.252 185.357,219.246 187.662,219.416 190.856 C 219.550 193.378,221.023 194.702,223.646 194.662 C 224.563 194.648,226.275 194.630,227.451 194.624 L 229.590 194.611 229.534 188.608 L 229.479 182.604 227.656 182.544 L 225.833 182.484 225.833 184.669 M240.285 183.078 C 239.185 183.968,239.114 184.989,240.083 185.958 C 241.094 186.969,242.409 186.808,243.036 185.595 C 243.983 183.764,241.848 181.811,240.285 183.078 M191.458 184.576 L 191.458 185.417 190.521 185.417 C 189.588 185.417,189.583 185.421,189.583 186.146 C 189.583 186.871,189.589 186.875,190.516 186.875 L 191.449 186.875 191.506 190.781 L 191.563 194.688 193.379 194.748 C 195.598 194.821,195.460 195.126,195.375 190.362 L 195.313 186.874 196.198 186.875 C 197.071 186.875,197.083 186.865,197.083 186.146 C 197.083 185.427,197.071 185.417,196.198 185.417 C 195.314 185.417,195.313 185.416,195.313 184.636 L 195.313 183.854 193.385 183.794 L 191.458 183.734 191.458 184.576 M240.410 184.740 C 240.405 185.377,240.364 185.453,240.189 185.152 C 240.071 184.949,240.034 184.598,240.106 184.371 C 240.305 183.741,240.417 183.876,240.410 184.740 M242.618 184.916 C 242.520 185.303,242.410 185.410,242.261 185.261 C 242.112 185.112,242.120 184.903,242.289 184.588 C 242.604 183.999,242.799 184.194,242.618 184.916 M241.663 185.885 C 241.665 185.971,241.535 186.042,241.374 186.042 C 241.179 186.042,241.119 185.896,241.194 185.607 C 241.301 185.199,241.654 185.408,241.663 185.885 M199.792 186.349 C 194.318 188.122,195.998 195.016,201.899 194.995 C 204.150 194.988,206.875 193.227,206.875 191.781 C 206.875 191.718,206.031 191.667,205.000 191.667 L 203.125 191.667 203.125 192.245 C 203.125 194.475,200.649 194.257,200.463 192.010 L 200.365 190.833 203.752 190.833 L 207.138 190.833 207.022 189.971 C 206.655 187.227,202.895 185.344,199.792 186.349 M233.638 186.373 C 231.057 187.290,229.775 189.922,230.805 192.189 C 232.381 195.658,238.007 196.008,240.277 192.779 C 242.841 189.131,238.276 184.726,233.638 186.373 M183.910 186.638 C 183.292 186.953,183.127 186.973,183.039 186.743 C 182.958 186.532,182.445 186.458,181.048 186.458 L 179.167 186.458 179.167 190.521 L 179.167 194.583 181.146 194.583 L 183.125 194.583 183.125 191.678 C 183.125 188.464,183.269 188.125,184.630 188.125 C 185.840 188.125,186.042 188.647,186.042 191.771 L 186.042 194.583 187.917 194.583 L 189.792 194.583 189.792 191.867 C 189.792 189.003,189.563 188.111,188.608 187.248 C 187.496 186.242,185.257 185.951,183.910 186.638 M212.552 186.661 C 211.824 186.992,211.667 187.009,211.667 186.761 C 211.667 186.519,211.291 186.458,209.792 186.458 L 207.917 186.458 207.917 190.521 L 207.917 194.583 209.792 194.583 L 211.667 194.583 211.667 191.771 C 211.667 188.575,211.856 188.125,213.197 188.125 C 214.435 188.125,214.583 188.511,214.583 191.735 L 214.583 194.583 216.563 194.583 L 218.542 194.583 218.541 192.240 C 218.538 187.265,216.141 185.032,212.552 186.661 M173.750 190.521 L 173.750 194.583 175.625 194.583 L 177.500 194.583 177.500 190.521 L 177.500 186.458 175.625 186.458 L 173.750 186.458 173.750 190.521 M202.708 187.708 C 203.635 188.635,203.285 189.167,201.748 189.167 L 200.371 189.167 200.507 188.594 C 200.787 187.413,201.946 186.946,202.708 187.708 M236.494 187.636 C 237.539 188.583,236.914 193.750,235.754 193.750 C 234.626 193.750,234.479 193.378,234.479 190.521 C 234.479 187.395,235.156 186.426,236.494 187.636 M225.670 188.398 C 225.756 188.535,225.828 189.492,225.830 190.527 C 225.834 192.706,225.555 193.333,224.583 193.333 C 223.052 193.333,222.671 188.336,224.167 187.866 C 224.553 187.745,225.458 188.065,225.670 188.398 " stroke="none" fill="#a4141c" fill-rule="evenodd"></path><path id="path2" d="M324.844 92.227 C 325.044 92.279,325.372 92.279,325.573 92.227 C 325.773 92.175,325.609 92.132,325.208 92.132 C 324.807 92.132,324.643 92.175,324.844 92.227 M200.365 92.448 C 205.664 92.479,214.336 92.479,219.635 92.448 C 224.935 92.417,220.599 92.392,210.000 92.392 C 199.401 92.392,195.065 92.417,200.365 92.448 M330.260 92.435 C 330.461 92.488,330.789 92.488,330.990 92.435 C 331.190 92.383,331.026 92.340,330.625 92.340 C 330.224 92.340,330.060 92.383,330.260 92.435 M260.559 92.864 C 262.757 92.898,266.414 92.898,268.684 92.864 C 270.955 92.831,269.156 92.803,264.688 92.803 C 260.219 92.803,258.361 92.831,260.559 92.864 M291.780 104.219 C 291.858 104.477,292.008 104.779,292.112 104.891 C 292.217 105.003,292.198 104.792,292.069 104.422 C 291.805 103.666,291.561 103.493,291.780 104.219 M43.284 104.731 C 43.543 104.781,43.918 104.779,44.117 104.726 C 44.316 104.674,44.104 104.634,43.646 104.636 C 43.188 104.638,43.025 104.681,43.284 104.731 M176.303 105.521 C 176.305 105.979,176.348 106.142,176.397 105.883 C 176.447 105.624,176.445 105.249,176.393 105.050 C 176.341 104.850,176.300 105.063,176.303 105.521 M301.076 109.071 C 300.726 109.838,300.793 110.001,301.170 109.304 C 301.347 108.979,301.452 108.674,301.404 108.627 C 301.357 108.579,301.209 108.779,301.076 109.071 M149.826 112.405 C 149.476 113.171,149.543 113.334,149.920 112.638 C 150.097 112.313,150.202 112.008,150.154 111.960 C 150.107 111.912,149.959 112.112,149.826 112.405 M3.784 112.821 C 3.435 113.588,3.501 113.751,3.879 113.054 C 4.055 112.729,4.160 112.424,4.113 112.377 C 4.065 112.329,3.917 112.529,3.784 112.821 M247.372 113.009 C 247.308 113.174,247.293 113.479,247.338 113.686 C 247.389 113.921,247.460 113.808,247.528 113.385 C 247.641 112.676,247.568 112.498,247.372 113.009 M176.923 113.958 C 176.923 114.359,176.966 114.523,177.019 114.323 C 177.071 114.122,177.071 113.794,177.019 113.594 C 176.966 113.393,176.923 113.557,176.923 113.958 M80.729 116.250 C 80.551 116.594,80.453 116.875,80.510 116.875 C 80.567 116.875,80.760 116.594,80.938 116.250 C 81.115 115.906,81.214 115.625,81.157 115.625 C 81.099 115.625,80.907 115.906,80.729 116.250 M384.070 116.789 C 383.876 117.085,383.753 117.364,383.796 117.407 C 383.840 117.451,384.041 117.209,384.241 116.869 C 384.690 116.108,384.556 116.046,384.070 116.789 M262.969 119.531 C 264.315 119.567,266.518 119.567,267.865 119.531 C 269.211 119.494,268.109 119.465,265.417 119.465 C 262.724 119.465,261.622 119.494,262.969 119.531 M339.223 120.625 C 339.223 121.141,339.264 121.352,339.314 121.094 C 339.363 120.836,339.363 120.414,339.314 120.156 C 339.264 119.898,339.223 120.109,339.223 120.625 M296.797 120.321 C 296.725 120.507,296.675 120.815,296.685 121.007 C 296.694 121.198,296.785 121.078,296.886 120.740 C 297.082 120.082,297.013 119.757,296.797 120.321 M288.542 121.875 C 288.297 122.219,288.144 122.500,288.201 122.500 C 288.258 122.500,288.505 122.219,288.750 121.875 C 288.995 121.531,289.148 121.250,289.091 121.250 C 289.034 121.250,288.786 121.531,288.542 121.875 M177.553 122.396 C 177.555 122.854,177.598 123.017,177.647 122.758 C 177.697 122.499,177.695 122.124,177.643 121.925 C 177.591 121.725,177.550 121.938,177.553 122.396 M359.806 122.188 C 359.806 122.302,359.940 122.630,360.104 122.917 C 360.268 123.203,360.402 123.344,360.402 123.229 C 360.402 123.115,360.268 122.786,360.104 122.500 C 359.940 122.214,359.806 122.073,359.806 122.188 M339.219 124.271 C 339.222 124.729,339.264 124.892,339.314 124.633 C 339.364 124.374,339.362 123.999,339.310 123.800 C 339.258 123.600,339.217 123.813,339.219 124.271 M157.731 124.398 C 157.603 124.766,157.535 125.104,157.579 125.149 C 157.624 125.193,157.765 124.928,157.894 124.560 C 158.022 124.192,158.090 123.854,158.046 123.810 C 158.001 123.765,157.860 124.030,157.731 124.398 M296.090 124.792 C 296.090 125.193,296.133 125.357,296.185 125.156 C 296.238 124.956,296.238 124.628,296.185 124.427 C 296.133 124.227,296.090 124.391,296.090 124.792 M42.120 126.198 C 54.135 126.250,54.976 126.277,55.065 126.616 C 55.136 126.887,55.166 126.861,55.184 126.510 L 55.208 126.042 42.240 126.092 L 29.271 126.143 42.120 126.198 M78.385 126.197 C 79.503 126.234,81.331 126.234,82.448 126.197 C 83.565 126.160,82.651 126.129,80.417 126.129 C 78.182 126.129,77.268 126.160,78.385 126.197 M310.057 127.500 C 310.057 128.016,310.097 128.227,310.147 127.969 C 310.197 127.711,310.197 127.289,310.147 127.031 C 310.097 126.773,310.057 126.984,310.057 127.500 M13.803 128.438 C 13.805 128.896,13.848 129.059,13.897 128.800 C 13.947 128.541,13.945 128.166,13.893 127.966 C 13.841 127.767,13.800 127.979,13.803 128.438 M178.178 130.729 C 178.180 131.188,178.223 131.350,178.272 131.091 C 178.322 130.832,178.320 130.457,178.268 130.258 C 178.216 130.059,178.175 130.271,178.178 130.729 M13.807 131.250 C 13.807 131.766,13.847 131.977,13.897 131.719 C 13.947 131.461,13.947 131.039,13.897 130.781 C 13.847 130.523,13.807 130.734,13.807 131.250 M310.048 132.708 C 310.048 133.109,310.091 133.273,310.144 133.073 C 310.196 132.872,310.196 132.544,310.144 132.344 C 310.091 132.143,310.048 132.307,310.048 132.708 M296.094 133.438 C 296.097 133.896,296.139 134.059,296.189 133.800 C 296.239 133.541,296.237 133.166,296.185 132.966 C 296.133 132.767,296.092 132.979,296.094 133.438 M273.305 134.071 C 273.691 134.238,274.066 134.372,274.139 134.368 C 274.410 134.352,273.217 133.765,272.917 133.766 C 272.745 133.766,272.920 133.903,273.305 134.071 M129.827 138.542 C 129.838 139.083,130.166 139.972,130.173 139.479 C 130.176 139.250,130.098 138.875,130.000 138.646 C 129.890 138.391,129.823 138.350,129.827 138.542 M178.807 139.375 C 178.807 139.891,178.847 140.102,178.897 139.844 C 178.947 139.586,178.947 139.164,178.897 138.906 C 178.847 138.648,178.807 138.859,178.807 139.375 M277.553 139.479 C 277.555 139.938,277.598 140.100,277.647 139.841 C 277.697 139.582,277.695 139.207,277.643 139.008 C 277.591 138.809,277.550 139.021,277.553 139.479 M75.066 139.323 C 77.222 139.357,80.690 139.357,82.774 139.323 C 84.858 139.289,83.094 139.261,78.854 139.261 C 74.615 139.261,72.910 139.289,75.066 139.323 M331.344 142.760 L 330.521 143.646 331.406 142.822 C 331.893 142.369,332.292 141.971,332.292 141.937 C 332.292 141.779,332.110 141.937,331.344 142.760 M359.286 144.494 C 359.209 144.799,359.187 145.089,359.236 145.138 C 359.285 145.188,359.388 144.978,359.464 144.673 C 359.541 144.367,359.563 144.077,359.514 144.028 C 359.465 143.979,359.362 144.189,359.286 144.494 M316.099 145.417 C 316.390 145.646,316.696 145.833,316.780 145.833 C 316.863 145.833,316.693 145.646,316.401 145.417 C 316.110 145.188,315.804 145.000,315.720 145.000 C 315.637 145.000,315.807 145.188,316.099 145.417 M346.658 146.054 C 346.409 146.404,346.239 146.725,346.282 146.768 C 346.324 146.810,346.570 146.524,346.827 146.131 C 347.408 145.245,347.277 145.185,346.658 146.054 M300.145 146.768 C 300.335 147.168,300.528 147.458,300.574 147.413 C 300.669 147.317,300.036 146.042,299.894 146.042 C 299.841 146.042,299.954 146.369,300.145 146.768 M358.778 147.500 C 358.760 147.786,358.696 148.255,358.637 148.542 L 358.530 149.063 358.754 148.550 C 358.877 148.268,358.940 147.799,358.895 147.508 L 358.812 146.979 358.778 147.500 M66.076 149.696 C 65.726 150.463,65.793 150.626,66.170 149.929 C 66.347 149.604,66.452 149.299,66.404 149.252 C 66.357 149.204,66.209 149.404,66.076 149.696 M286.030 152.656 L 285.313 153.438 286.094 152.720 C 286.821 152.051,286.971 151.875,286.812 151.875 C 286.777 151.875,286.425 152.227,286.030 152.656 M180.060 156.146 C 180.061 156.719,180.102 156.928,180.149 156.612 C 180.197 156.295,180.196 155.826,180.147 155.570 C 180.097 155.314,180.058 155.573,180.060 156.146 M62.489 157.633 C 62.374 157.935,62.319 158.221,62.366 158.269 C 62.413 158.316,62.552 158.069,62.673 157.719 C 62.944 156.942,62.781 156.866,62.489 157.633 M360.482 158.906 C 362.409 158.940,365.502 158.940,367.357 158.906 C 369.212 158.871,367.635 158.843,363.854 158.843 C 360.073 158.843,358.555 158.872,360.482 158.906 M23.333 159.375 C 24.046 159.603,24.593 159.603,24.063 159.375 C 23.833 159.277,23.458 159.199,23.229 159.202 C 22.894 159.207,22.915 159.241,23.333 159.375 M189.932 159.740 C 195.108 159.771,203.640 159.771,208.891 159.740 C 214.141 159.709,209.906 159.683,199.479 159.683 C 189.052 159.683,184.756 159.709,189.932 159.740 M248.162 159.739 C 252.479 159.771,259.604 159.771,263.995 159.740 C 268.386 159.708,264.854 159.682,256.146 159.682 C 247.438 159.682,243.845 159.708,248.162 159.739 M29.747 160.154 C 30.352 160.196,31.289 160.196,31.830 160.153 C 32.370 160.110,31.875 160.076,30.729 160.076 C 29.583 160.077,29.141 160.112,29.747 160.154 " stroke="none" fill="#3c3ca4" fill-rule="evenodd"></path><path id="path3" d="" stroke="none" fill="#3c28a0" fill-rule="evenodd"></path><path id="path4" d="" stroke="none" fill="#742880" fill-rule="evenodd"></path></g></svg>