<?xml version="1.0" encoding="UTF-8"?>
<svg version="1.1" xmlns="http://www.w3.org/2000/svg" width="1920" height="1080">
<path d="M0 0 C1.4564946 0.00031723 1.4564946 0.00031723 2.94241333 0.00064087 C18.21287159 0.03379277 32.69091576 0.97398082 47.625 4.375 C48.56827148 4.57818848 49.51154297 4.78137695 50.48339844 4.99072266 C60.72576221 7.20186621 70.78864497 9.72964275 80.625 13.375 C80.89985004 20.59883631 79.8417908 27.43338466 78.69140625 34.5546875 C78.49401352 35.80379913 78.29662079 37.05291077 78.09324646 38.33987427 C77.67666134 40.96765984 77.25777338 43.59494197 76.8347168 46.22167969 C76.29238598 49.58996337 75.75854643 52.95952496 75.22749424 56.3296032 C74.71912107 59.55104777 74.20517228 62.77159927 73.69140625 65.9921875 C73.49970352 67.20357391 73.30800079 68.41496033 73.11048889 69.66305542 C72.93037766 70.77826569 72.75026642 71.89347595 72.56469727 73.04248047 C72.40703384 74.02650848 72.24937042 75.0105365 72.08692932 76.02438354 C71.625 78.375 71.625 78.375 70.625 80.375 C69.366875 79.983125 68.10875 79.59125 66.8125 79.1875 C37.9641059 70.61867007 7.54513851 66.60726246 -22.375 72.375 C-23.22255859 72.53097656 -24.07011719 72.68695313 -24.94335938 72.84765625 C-44.75969593 76.55036274 -62.64934403 82.81065497 -80.375 92.375 C-81.27347656 92.85453125 -82.17195312 93.3340625 -83.09765625 93.828125 C-101.91083909 104.47363334 -118.51493628 120.78635957 -129.54345703 139.34082031 C-138.5883793 155.37410185 -143.46924973 172.47870271 -143.40625 190.921875 C-143.01604306 207.12409577 -138.5897938 222.35259002 -130.625 236.5 C-124.16775981 246.76239959 -116.00027758 254.20021082 -105.4140625 259.99609375 C-91.31410455 266.9764433 -75.38472222 270.2867921 -59.6640625 269.57617188 C-50.80139985 268.79728599 -41.99007481 266.5287687 -33.375 264.375 C-33.045 261.405 -32.715 258.435 -32.375 255.375 C-31.055 248.445 -29.735 241.515 -28.375 234.375 C-45.205 234.045 -62.035 233.715 -79.375 233.375 C-77.5835588 220.2377645 -75.78259962 207.14969071 -73.64013672 194.07202148 C-73.23910698 191.62092171 -72.84396764 189.16891528 -72.44921875 186.71679688 C-72.19304708 185.14056991 -71.93655024 183.56439575 -71.6796875 181.98828125 C-71.56301727 181.26345047 -71.44634705 180.53861969 -71.32614136 179.79182434 C-70.84665709 176.883045 -70.3092818 174.17784541 -69.375 171.375 C-28.455 171.375 12.465 171.375 54.625 171.375 C52.37532228 189.37242175 52.37532228 189.37242175 51.43579102 195.37573242 C51.33302856 196.03684021 51.23026611 196.697948 51.12438965 197.37908936 C50.79474637 199.49656355 50.46182367 201.61350713 50.12890625 203.73046875 C49.8920811 205.24909163 49.65550979 206.76775411 49.41917419 208.28645325 C48.80258457 212.24544438 48.18339189 216.20402312 47.56335449 220.16247559 C46.45712414 227.22632586 45.35447054 234.29073364 44.25390625 241.35546875 C44.13700062 242.1053796 44.02009499 242.85529045 43.89964676 243.62792587 C42.04584267 255.53033774 40.27351324 267.44228014 38.625 279.375 C46.64594956 261.21750814 54.64982857 243.05264878 62.625 224.875 C68.41239647 211.68400254 74.21254883 198.49877876 80.03173828 185.32177734 C85.24600225 173.51341466 90.43878789 161.69570736 95.625 149.875 C101.41241 136.68400848 107.21254882 123.49877878 113.03173828 110.32177734 C117.85982427 99.38796371 122.67025637 88.44648469 127.47253418 77.50131226 C128.61707791 74.89305337 129.7620635 72.28498897 130.90722656 69.67700195 C131.28167908 68.82422165 131.65613159 67.97144135 132.04193115 67.09281921 C132.793747 65.38066451 133.545578 63.66851645 134.29742432 61.95637512 C136.48299377 56.97856091 138.66580932 51.99955086 140.84655762 47.0196228 C142.20146363 43.92728309 143.55891028 40.83606325 144.91699219 37.74511719 C145.5430931 36.31867933 146.16813861 34.89177763 146.79199219 33.46435547 C147.65534116 31.48929035 148.52257232 29.51597023 149.390625 27.54296875 C150.11427246 25.89204224 150.11427246 25.89204224 150.85253906 24.20776367 C153.32028486 18.87151831 155.99573075 13.63353849 158.625 8.375 C185.685 8.375 212.745 8.375 240.625 8.375 C242.62957371 17.06148609 244.44263423 25.59833698 245.86938477 34.37280273 C246.1836282 36.27152918 246.49787312 38.17025539 246.81216955 40.06897306 C247.14686075 42.09567506 247.4795412 44.12269773 247.81162834 46.14982796 C248.52141414 50.48174405 249.23715257 54.81266405 249.95399475 59.14341736 C250.20415016 60.65496859 250.45430175 62.16652045 250.70444965 63.67807293 C250.89289367 64.81669075 250.89289367 64.81669075 251.08514464 65.97831094 C251.47279172 68.32177474 251.85990236 70.66532662 252.24688244 73.00890064 C254.87436923 88.91619012 257.54331757 104.81645142 260.21705246 120.71602249 C261.02934025 125.54644527 261.84076683 130.37701245 262.65200806 135.20761108 C264.84916713 148.29017854 267.04724239 161.37259189 269.24633789 174.45483398 C270.48834451 181.84347485 271.72963894 189.23223502 272.97019583 196.62111944 C273.61573004 200.4657907 274.26159906 204.31040491 274.90839958 208.15486336 C277.8908197 225.88281406 280.82164187 243.61768375 283.625 261.375 C283.955 261.705 284.285 262.035 284.625 262.375 C292.3505691 241.57637122 299.79183613 220.68132201 307.18336487 199.76199341 C307.54824509 198.72936371 307.91312531 197.69673401 308.2890625 196.6328125 C308.65366074 195.6009079 309.01825897 194.5690033 309.39390564 193.50582886 C312.99120342 183.32956277 316.61636076 173.16333746 320.25 163 C320.55546753 162.14547241 320.86093506 161.29094482 321.17565918 160.41052246 C322.71079471 156.11631664 324.24638266 151.82227282 325.78222656 147.52832031 C328.58605594 139.68854092 331.38557154 131.84722075 334.18548584 124.00604248 C335.74848749 119.6289677 337.31175706 115.25198861 338.875 110.875 C339.50000129 109.12500046 340.12500129 107.37500046 340.75 105.625 C344.50000002 95.12499995 344.50000002 95.12499995 345.43731689 92.5005188 C346.0629324 90.74879131 346.68854274 88.99706198 347.31414795 87.24533081 C348.86718859 82.89674633 350.42031607 78.5481929 351.97363281 74.19970703 C354.89902797 66.00981541 357.82351174 57.81960137 360.74511719 49.62835693 C362.12296678 45.7654686 363.50128472 41.90274746 364.87963867 38.04003906 C365.53563456 36.2012554 366.19140176 34.36239013 366.84692383 32.5234375 C367.75674229 29.97114615 368.6673537 27.41913896 369.578125 24.8671875 C369.84308777 24.12322723 370.10805054 23.37926697 370.38104248 22.61276245 C370.63331604 21.90636627 370.8855896 21.19997009 371.14550781 20.47216797 C371.46736053 19.56964798 371.46736053 19.56964798 371.79571533 18.64889526 C373.04792734 15.2153349 374.34172324 11.79707136 375.625 8.375 C397.735 8.375 419.845 8.375 442.625 8.375 C448.36956616 35.94891755 448.36956616 35.94891755 450.97265625 49.78515625 C451.26911185 51.35143774 451.56577493 52.91767997 451.86262512 54.48388672 C452.64553285 58.61724722 453.42588653 62.75108575 454.20571136 66.88502884 C455.02305593 71.21524395 455.84287232 75.54499092 456.66259766 79.87475586 C456.99628217 81.63740439 457.32996136 83.40005393 457.66363525 85.16270447 C457.82929237 86.03779097 457.99494949 86.91287746 458.16562653 87.81448174 C458.6679189 90.46848659 459.16990765 93.1225487 459.67181396 95.77662659 C461.85141298 107.30076652 464.04047019 118.82306988 466.23828125 130.34375 C466.44947822 131.4510185 466.44947822 131.4510185 466.66494179 132.58065605 C467.86840944 138.89002585 469.07237417 145.19930061 470.27761841 151.5083313 C470.99566666 155.26714104 471.71268518 159.02614685 472.4296875 162.78515625 C472.74423637 164.42955688 472.74423637 164.42955688 473.06513977 166.10717773 C473.9703807 170.85562207 474.86386946 175.60077542 475.625 180.375 C481.07279358 170.0001288 485.61434724 159.27965161 490.1875 148.5 C491.39505317 145.66547317 492.60398349 142.83153631 493.81300354 139.99763489 C494.61813174 138.11026709 495.42285167 136.22272507 496.22715759 134.33500671 C499.55714016 126.52188918 502.92591616 118.7262159 506.3125 110.9375 C510.75898078 100.70007654 515.17165673 90.44887167 519.5625 80.1875 C525.68222586 65.88719945 531.82984136 51.59900208 537.98928833 37.31576538 C538.9946013 34.9844945 539.99970867 32.65313494 541.00460815 30.32168579 C542.41651046 27.04621883 543.82921474 23.77109905 545.2421875 20.49609375 C545.67063461 19.50195465 546.09908173 18.50781555 546.54051208 17.48355103 C546.93303665 16.57430878 547.32556122 15.66506653 547.72998047 14.72827148 C548.07334442 13.93227036 548.41670837 13.13626923 548.77047729 12.31614685 C549.35544973 10.98731452 549.97569451 9.67361098 550.625 8.375 C577.355 8.375 604.085 8.375 631.625 8.375 C632.79215885 20.63016789 633.9518018 32.8566369 634.84150696 45.1308136 C634.90836512 46.04918818 634.97522327 46.96756275 635.04410744 47.91376686 C635.11334105 48.86519255 635.18257465 49.81661823 635.25390625 50.796875 C635.40552988 52.85659785 635.55736681 54.916305 635.70939636 56.97599792 C636.03445895 61.38534504 636.35817161 65.79478828 636.68078613 70.20431519 C637.19730323 77.26341616 637.71701202 84.32227994 638.23730469 91.38110352 C638.41806663 93.83393813 638.59882219 96.28677322 638.77957153 98.73960876 C638.87033085 99.97124189 638.96109016 101.20287502 639.05459976 102.47183037 C639.33447149 106.27141025 639.61404158 110.07101221 639.89352417 113.87062073 C641.84723169 140.42760564 643.82046548 166.98312851 645.79660034 193.53845215 C646.26718569 199.86244945 646.73726874 206.18648397 647.20719242 212.51053047 C648.08299762 224.29632752 648.96070459 236.08198043 649.84112644 247.86743355 C650.38421965 255.13971968 650.92454058 262.41220683 651.46337509 269.68480968 C651.82898339 274.61283082 652.19659126 279.54070144 652.56467438 284.46853828 C652.73847851 286.80089779 652.91146486 289.1333184 653.08358002 291.46580315 C653.32077819 294.67862326 653.56092109 297.89121064 653.80175781 301.10375977 C653.87058418 302.04557917 653.93941055 302.98739857 654.01032257 303.95775795 C654.37670516 308.80177948 654.87174857 313.5754436 655.625 318.375 C655.75748894 317.54914398 655.75748894 317.54914398 655.89265442 316.706604 C656.87512615 310.58305211 657.85816186 304.4595909 658.84152222 298.33618164 C659.24093033 295.84904856 659.64028279 293.36190654 660.0395813 290.87475586 C662.4543048 275.83638851 664.87768581 260.79948638 667.3203125 245.765625 C672.02081294 216.82640547 676.66609053 187.88078626 681.16906738 158.91003418 C685.15451454 133.27492895 689.23882941 107.65614307 693.35058594 82.04101562 C693.72544944 79.70558684 694.10030844 77.37015733 694.47515106 75.03472519 C694.71997828 73.50940341 694.96483584 71.9840865 695.20972443 70.45877457 C696.78999746 60.61413933 698.35690842 50.7675296 699.90625 40.91796875 C700.1580175 39.32056351 700.1580175 39.32056351 700.41487122 37.69088745 C701.16671176 32.92048642 701.91580695 28.14969562 702.65893555 23.37792969 C702.91179309 21.7714602 703.16479322 20.16501315 703.41796875 18.55859375 C703.58268677 17.48800972 703.58268677 17.48800972 703.75073242 16.39579773 C704.51130566 11.60238867 704.51130566 11.60238867 705.625 9.375 C766.345 9.375 827.065 9.375 889.625 9.375 C888.49978297 22.87760438 888.49978297 22.87760438 887.70117188 27.93798828 C887.52428833 29.07180939 887.34740479 30.20563049 887.16516113 31.37380981 C886.88231262 33.14170364 886.88231262 33.14170364 886.59375 34.9453125 C886.39777222 36.18876434 886.20179443 37.43221619 885.99987793 38.71334839 C885.48403096 41.9779059 884.96407948 45.24177634 884.44256592 48.50543213 C884.01641992 51.1819697 883.59605206 53.85940207 883.17568207 56.53685188 C882.67259275 59.73604325 882.16425384 62.93439841 881.65625 66.1328125 C881.46768433 67.3316507 881.27911865 68.53048889 881.08483887 69.76565552 C880.90795532 70.86795502 880.73107178 71.97025452 880.54882812 73.10595703 C880.39418091 74.07792023 880.23953369 75.04988342 880.0802002 76.05130005 C879.625 78.375 879.625 78.375 878.625 80.375 C821.7 80.87 821.7 80.87 763.625 81.375 C760.985 98.865 758.345 116.355 755.625 134.375 C755.295 135.035 754.965 135.695 754.625 136.375 C787.955 136.375 821.285 136.375 855.625 136.375 C854.5 151 854.5 151 853.68530273 156.08325195 C853.50269897 157.23893677 853.32009521 158.39462158 853.13195801 159.58532715 C852.9427478 160.749552 852.7535376 161.91377686 852.55859375 163.11328125 C852.382677 164.22070679 852.20676025 165.32813232 852.0255127 166.46911621 C851.37685521 170.54281931 850.71917139 174.61508104 850.0625 178.6875 C847.8659375 192.3928125 847.8659375 192.3928125 845.625 206.375 C812.295 206.375 778.965 206.375 744.625 206.375 C744.295 209.675 743.965 212.975 743.625 216.375 C743.39728714 218.09182454 743.15521854 219.8069657 742.88476562 221.51757812 C742.74792358 222.39128052 742.61108154 223.26498291 742.47009277 224.16516113 C742.32527466 225.06972046 742.18045654 225.97427979 742.03125 226.90625 C741.80387146 228.34284973 741.80387146 228.34284973 741.57189941 229.80847168 C741.25395132 231.8119948 740.93455857 233.81528916 740.61376953 235.81835938 C740.12199155 238.89381406 739.6369128 241.97027718 739.15234375 245.046875 C738.84154556 247.00006365 738.53036167 248.95319097 738.21875 250.90625 C738.07393188 251.82700317 737.92911377 252.74775635 737.77990723 253.69641113 C737.64306519 254.54489624 737.50622314 255.39338135 737.36523438 256.26757812 C737.24611694 257.01463013 737.12699951 257.76168213 737.00427246 258.53137207 C736.625 260.375 736.625 260.375 735.625 262.375 C773.575 262.375 811.525 262.375 850.625 262.375 C849.49984346 275.87687853 849.49984346 275.87687853 848.70117188 280.83032227 C848.52428833 281.94089493 848.34740479 283.05146759 848.16516113 284.19569397 C847.88231262 285.92607155 847.88231262 285.92607155 847.59375 287.69140625 C847.39777222 288.91029037 847.20179443 290.1291745 846.99987793 291.38499451 C846.58850519 293.93743212 846.17494423 296.48951794 845.75927734 299.04125977 C845.12182806 302.95698462 844.49203784 306.87388653 843.86328125 310.79101562 C843.46138431 313.27871806 843.0590561 315.76635087 842.65625 318.25390625 C842.37340149 320.01161095 842.37340149 320.01161095 842.08483887 321.80482483 C841.90795532 322.88702805 841.73107178 323.96923126 841.54882812 325.08422852 C841.39418091 326.03620621 841.23953369 326.9881839 841.0802002 327.9690094 C840.625 330.375 840.625 330.375 839.625 333.375 C816.66113637 333.39873937 793.69727486 333.41617458 770.7334013 333.42681217 C760.06225349 333.43189053 749.39111353 333.438791 738.7199707 333.45043945 C688.34513085 333.50436316 637.99125215 333.37392149 587.625 332.375 C584.66498473 312.62525182 581.7067487 292.87523746 578.75 273.125 C578.6413208 272.3990682 578.53264159 271.6731364 578.42066908 270.92520666 C567.66464073 199.07808793 567.66464073 199.07808793 562.4375 163.4375 C562.28252926 162.3808741 562.28252926 162.3808741 562.1244278 161.30290222 C560.95494902 153.32737333 559.78795662 145.3514827 558.625 137.375 C551.38914074 155.16545551 544.52600434 173.07826838 537.78833008 191.06167603 C534.92805296 198.6959647 532.05759542 206.32642959 529.1875 213.95703125 C528.90282364 214.71411818 528.61814728 215.4712051 528.32484436 216.25123405 C523.31091279 229.58365367 518.23840012 242.89289227 513.125 256.1875 C506.07902358 274.50994959 499.1553349 292.87655417 492.28320312 311.26489258 C491.91811646 312.24149338 491.55302979 313.21809418 491.17687988 314.22428894 C490.49616512 316.04584475 489.81603204 317.86761808 489.13659668 319.68965149 C488.83370728 320.50056747 488.53081787 321.31148346 488.21875 322.14697266 C487.95771484 322.84682281 487.69667969 323.54667297 487.42773438 324.26773071 C486.52117513 326.64755213 485.57080013 329.01049968 484.625 331.375 C469.445 331.375 454.265 331.375 438.625 331.375 C434.49731742 316.62235671 430.45405278 301.8663388 426.67879295 287.02075958 C422.77091784 271.66118335 418.80097483 256.31809994 414.79296875 240.984375 C414.54803177 240.04727755 414.30309479 239.11018009 414.05073547 238.14468575 C412.55752956 232.43320989 411.06289718 226.72210804 409.56787109 221.0111084 C408.54936043 217.11960101 407.53167292 213.22787857 406.51401806 209.33614731 C401.89681434 191.67913629 397.27392354 174.02368977 392.625 156.375 C392.15154932 157.6274981 391.67907011 158.88036345 391.20698547 160.13337708 C390.94376653 160.83102582 390.68054758 161.52867456 390.4093523 162.24746418 C389.18117552 165.57886269 388.07743034 168.94777463 386.98046875 172.32421875 C386.73430817 173.07810883 386.48814758 173.8319989 386.23452759 174.60873413 C385.42480323 177.09255485 384.61836555 179.57742481 383.8125 182.0625 C383.53143402 182.9273703 383.25036804 183.7922406 382.96078491 184.68331909 C377.72266125 200.81358038 372.66894449 216.99874044 367.65380859 233.19946289 C363.93409877 245.20917864 360.13805398 257.18970441 356.25244141 269.14672852 C352.5773446 280.47030747 349.01027751 291.82675099 345.46606445 303.19189453 C343.31145016 310.09110286 341.12629341 316.97923684 338.86328125 323.84375 C338.45762939 325.07544922 338.05197754 326.30714844 337.6340332 327.57617188 C336.625 330.375 336.625 330.375 335.625 331.375 C298.005 331.375 260.385 331.375 221.625 331.375 C215.3125 295.4375 215.3125 295.4375 213.33862305 284.19946289 C212.74125789 280.79881895 212.74125789 280.79881895 212.14387512 277.3981781 C211.88314914 275.91392947 211.62244874 274.42967635 211.36177063 272.94541931 C211.09313939 271.41589988 210.82441803 269.88639628 210.55560493 268.3569088 C210.29544705 266.87532524 210.03580957 265.39365019 209.77674675 263.91187477 C209.11953073 260.15833798 208.45019245 256.40749422 207.76260376 252.65939331 C207.55304534 251.50551322 207.55304534 251.50551322 207.33925343 250.32832241 C207.07375967 248.86832675 206.80489301 247.4089387 206.53198528 245.95031071 C205.87201668 242.30187666 205.625 239.12188486 205.625 235.375 C180.545 235.375 155.465 235.375 129.625 235.375 C128.14 239.83 128.14 239.83 126.625 244.375 C125.51249502 246.97315339 124.37902451 249.5281109 123.17578125 252.08203125 C122.8459877 252.79316071 122.51619415 253.50429016 122.17640686 254.23696899 C121.46850791 255.76280503 120.75859183 257.28770662 120.04681396 258.81173706 C118.13385339 262.90863026 116.23639687 267.01267846 114.33984375 271.1171875 C113.94955994 271.96137741 113.55927612 272.80556732 113.15716553 273.67533875 C108.33445099 284.13384794 103.69155555 294.67235949 99.06762695 305.2199707 C98.44874767 306.6245193 97.82985199 308.02906067 97.2109375 309.43359375 C96.42275635 311.23268188 96.42275635 311.23268188 95.61865234 313.06811523 C92.76259119 319.23806071 89.66556944 325.29386113 86.625 331.375 C51.975 331.87 51.975 331.87 16.625 332.375 C17.75 325.625 17.75 325.625 19.25390625 322.5078125 C19.56650391 321.85039063 19.87910156 321.19296875 20.20117188 320.515625 C20.52666016 319.85046875 20.85214844 319.1853125 21.1875 318.5 C21.51685547 317.81164062 21.84621094 317.12328125 22.18554688 316.4140625 C22.99195361 314.7311267 23.80754494 313.05259707 24.625 311.375 C23.78582031 311.8596875 22.94664062 312.344375 22.08203125 312.84375 C2.32582645 323.96852159 -19.84561386 331.52987928 -42.375 334.375 C-43.20128906 334.48585938 -44.02757812 334.59671875 -44.87890625 334.7109375 C-69.39982279 337.48123952 -94.08340972 334.26217765 -117.375 326.375 C-118.40028809 326.02912842 -118.40028809 326.02912842 -119.44628906 325.67626953 C-136.82762479 319.64144873 -152.12854158 309.86187457 -166.375 298.375 C-167.20902344 297.70339844 -168.04304688 297.03179688 -168.90234375 296.33984375 C-184.97062476 282.80054363 -197.02722739 263.86257082 -204.375 244.375 C-209.78258365 228.29408732 -210.74809969 213.06024716 -210.74560547 196.24047852 C-210.7499494 192.97553149 -210.78628283 189.71197215 -210.82421875 186.44726562 C-210.98686319 156.15101582 -203.56706367 127.40784296 -188.90844727 100.88330078 C-183.74776328 91.86629285 -177.54127703 83.89140237 -170.78613281 76.01953125 C-169.60165402 74.63914212 -168.43532965 73.24320374 -167.2734375 71.84375 C-163.35422677 67.19080575 -159.02279608 63.28566649 -154.375 59.375 C-153.42753906 58.5396875 -152.48007813 57.704375 -151.50390625 56.84375 C-127.63447147 35.91696897 -97.61326668 19.78422864 -67.375 10.375 C-66.66649902 10.15118652 -65.95799805 9.92737305 -65.22802734 9.69677734 C-43.58755029 2.91206465 -22.6153106 -0.04550558 0 0 Z M182.625 112.375 C182.37032959 112.95950928 182.11565918 113.54401855 181.85327148 114.14624023 C175.18076923 129.43782038 168.3513967 144.65059587 161.40209961 159.81811523 C160.92554428 160.86091896 160.92554428 160.86091896 160.43936157 161.92478943 C159.83817029 163.24027558 159.23543161 164.55505594 158.63095093 165.86903381 C157.22142327 168.51683902 157.22142327 168.51683902 156.625 171.375 C169.165 171.375 181.705 171.375 194.625 171.375 C193.90155811 163.64481208 193.90155811 163.64481208 192.71704102 156.06469727 C192.54338516 155.15418106 192.36972931 154.24366486 192.19081116 153.30555725 C192.00538254 152.36038742 191.81995392 151.41521759 191.62890625 150.44140625 C191.33849709 148.94177589 191.33849709 148.94177589 191.04222107 147.41184998 C190.63521438 145.31813893 190.22584741 143.22488542 189.81420898 141.13208008 C189.18477562 137.92361279 188.56762395 134.71293672 187.95117188 131.50195312 C187.55282235 129.46079314 187.15375931 127.41977224 186.75390625 125.37890625 C186.57050186 124.4195668 186.38709747 123.46022736 186.19813538 122.47181702 C186.02132736 121.58336594 185.84451935 120.69491486 185.66235352 119.77954102 C185.50992691 118.99917984 185.35750031 118.21881866 185.20045471 117.41481018 C184.65778143 115.09056062 184.65778143 115.09056062 182.625 112.375 Z M36.625 282.375 C37.625 284.375 37.625 284.375 37.625 284.375 Z " fill="#383B9E" transform="translate(210.375,433.625)"/>
<path d="M0 0 C4.19793142 0.00571064 8.3957997 0.00228264 12.59372902 -0.00341988 C27.79561253 -0.02116219 42.99521212 -0.00024882 58.19018555 0.50537109 C59.20980881 0.53468719 60.22943207 0.5640033 61.279953 0.59420776 C69.95709926 0.94004693 77.345165 2.72064213 85.3425293 6.13037109 C86.53749023 6.63697266 87.73245117 7.14357422 88.96362305 7.66552734 C103.60747313 14.45013696 117.43254153 25.42833944 126.91674805 38.58349609 C134.63746363 49.88046711 140.35667821 62.54010061 141.52709961 76.30029297 C142.46523963 92.29591783 139.4163815 106.69971259 132.3425293 121.13037109 C125.66687244 134.10832592 117.17638307 145.35220686 107.3425293 156.13037109 C108.80198214 159.56123144 110.67404523 161.55844835 113.4050293 164.06787109 C123.63179543 174.09733627 131.62571844 187.20617279 135.75268555 200.95458984 C135.94733398 201.67259766 136.14198242 202.39060547 136.3425293 203.13037109 C136.54749023 203.83806641 136.75245117 204.54576172 136.96362305 205.27490234 C139.87894318 217.07692249 139.28805087 229.84032733 136.11083984 241.50292969 C131.71457223 256.44686792 124.4541838 269.32710521 114.3425293 281.13037109 C113.67737305 281.94119141 113.0122168 282.75201172 112.3269043 283.58740234 C99.44294736 298.73798133 81.71781558 309.84333344 63.3425293 317.13037109 C50.44378385 321.61531445 37.81669148 322.27958094 24.27587891 322.24389648 C22.76718142 322.24361398 21.25848379 322.24377358 19.74978638 322.24433899 C15.67812293 322.24462449 11.60648927 322.23876786 7.53483272 322.23176503 C3.27074636 322.2254902 -0.99334077 322.22492444 -5.25743103 322.22373962 C-13.3213536 322.22063845 -21.38526253 322.21244149 -29.44917911 322.20239013 C-38.63421723 322.19119122 -47.81925603 322.18570904 -57.00429928 322.1806947 C-75.88869748 322.17025781 -94.77308299 322.15268196 -113.6574707 322.13037109 C-113.14528721 315.35917385 -112.53811948 308.66532055 -111.46508789 301.95947266 C-111.34899611 301.2262016 -111.23290432 300.49293055 -111.1132946 299.73743916 C-110.73122895 297.33125843 -110.34285657 294.92614382 -109.9543457 292.52099609 C-109.67715847 290.78447653 -109.40034356 289.0478975 -109.12387085 287.31126404 C-108.37890652 282.63948306 -107.62828459 277.96862744 -106.87650299 273.2979393 C-106.24560886 269.37352575 -105.6181607 265.44856443 -104.99072456 261.52359676 C-100.22978981 231.74380774 -95.3957079 201.97588932 -90.54219055 172.21106911 C-87.5229884 153.69289525 -84.53836199 135.17067604 -81.6574707 116.63037109 C-78.2711652 94.84172792 -74.75911954 73.07389586 -71.22698975 51.3085022 C-70.7859596 48.58938151 -70.34564127 45.87014644 -69.90551758 43.15087891 C-69.20888189 38.84767009 -68.51024302 34.54479105 -67.81005478 30.24215889 C-67.5504528 28.6453773 -67.29143579 27.04850047 -67.03305435 25.45152092 C-65.71592737 17.31492456 -64.37288836 9.19486324 -62.6574707 1.13037109 C-41.76473342 0.21421548 -20.90993893 -0.02879357 0 0 Z M-4.6574707 70.13037109 C-5.44255156 74.37161701 -6.22346633 78.61360718 -7.0012207 82.85620117 C-7.26386714 84.28607741 -7.52747318 85.71577786 -7.79223633 87.14526367 C-10.31439838 100.76978908 -12.5064027 114.44284378 -14.6574707 128.13037109 C-7.16857634 128.23238119 0.32013666 128.30209154 7.80957031 128.35009766 C10.35358374 128.37012544 12.89755164 128.39735573 15.44140625 128.43212891 C19.11298913 128.4810354 22.78395962 128.5034293 26.45581055 128.52099609 C28.14242546 128.55196381 28.14242546 128.55196381 29.8631134 128.58355713 C37.36803507 128.58565603 43.54179464 127.36647274 50.3425293 124.13037109 C57.0019941 120.12439806 61.56575072 115.04474526 65.37768555 108.29833984 C67.70818332 103.1495657 67.84155317 97.90773055 67.6862793 92.31787109 C67.18218953 87.64358418 66.00186071 84.01346564 63.3425293 80.13037109 C60.24419428 76.56140291 56.82583261 74.13238383 52.4675293 72.31787109 C44.80090648 69.8960502 36.80596065 69.9878219 28.83862305 70.03271484 C27.8747316 70.03412979 26.91084015 70.03554474 25.91773987 70.03700256 C22.87180332 70.04255167 19.82594323 70.05509441 16.7800293 70.06787109 C14.70125432 70.07289268 12.62247819 70.07745443 10.54370117 70.08154297 C5.4766149 70.09250438 0.40958502 70.1097333 -4.6574707 70.13037109 Z M-25.6574707 196.13037109 C-26.81438193 203.31085229 -27.97062179 210.49144127 -29.12602139 217.67216587 C-29.66262739 221.00700102 -30.19945843 224.3417996 -30.73681641 227.67651367 C-31.35547828 231.51650858 -31.97334716 235.35663038 -32.59106445 239.19677734 C-32.78276718 240.38557999 -32.97446991 241.57438263 -33.17198181 242.79920959 C-34.04601051 248.2373253 -34.90569386 253.67392624 -35.6574707 259.13037109 C-28.22391979 259.17714333 -20.79038452 259.21246453 -13.35671902 259.23399544 C-9.90328636 259.24434008 -6.4499559 259.25832389 -2.99658203 259.28125 C0.99276593 259.30756221 4.98201011 259.31692066 8.97143555 259.32568359 C10.18456924 259.33600616 11.39770294 259.34632874 12.64759827 259.35696411 C25.05302117 259.35855211 38.02876005 258.67811968 49.3425293 253.13037109 C55.50570133 249.42602553 60.67572073 244.58846994 64.37768555 238.39990234 C66.82914217 233.05230627 66.89560178 227.41057554 66.75268555 221.60693359 C66.13133775 216.34027136 64.46053588 212.39794576 61.3425293 208.13037109 C57.18260917 203.46560629 52.10160931 200.44658112 46.3425293 198.13037109 C38.4445306 195.8746605 30.84913713 195.87045395 22.68237305 195.93505859 C21.28276269 195.93879636 19.88314969 195.94163972 18.48353577 195.94363403 C14.82899543 195.95121049 11.17461822 195.97080624 7.5201416 195.99304199 C3.77931931 196.01363068 0.03847024 196.02266339 -3.70239258 196.03271484 C-11.02082571 196.05405885 -18.33912521 196.08812085 -25.6574707 196.13037109 Z " fill="#383B9E" transform="translate(1265.657470703125,444.86962890625)"/>
<path d="M0 0 C22.45583176 9.7316714 41.45875291 23.84941624 56.17089844 43.62084961 C62.16792302 52.04004654 66.94995138 60.84065824 71.1875 70.25 C71.48994629 70.89308105 71.79239258 71.53616211 72.10400391 72.19873047 C85.85212408 101.53538583 88.2808809 134.56356612 85.77368164 166.49023438 C82.37948492 199.79652546 69.1858681 231.89999077 49.91796875 259.03808594 C43.65800684 267.70763636 36.55256525 275.51794696 29.1875 283.25 C28.5275 283.25 27.8675 283.25 27.1875 283.25 C27.1875 283.91 27.1875 284.57 27.1875 285.25 C8.42956981 300.45288333 -10.37454485 312.5751131 -33.8125 319.25 C-35.40384766 319.72953125 -35.40384766 319.72953125 -37.02734375 320.21875 C-54.44017943 324.60751605 -75.56030622 324.39371032 -92.8515625 319.5078125 C-94.17435598 319.09643611 -95.49470846 318.67712829 -96.8125 318.25 C-97.8348877 317.92854004 -97.8348877 317.92854004 -98.87792969 317.60058594 C-120.3786154 310.67561121 -137.7976306 297.60935664 -153.07714844 281.17919922 C-170.81604902 261.4587726 -181.61371875 236.13372461 -187.24047852 210.43945312 C-193.20863723 181.36028119 -192.37392426 150.94463566 -184.8125 122.25 C-184.60109375 121.445625 -184.3896875 120.64125 -184.171875 119.8125 C-180.83848857 107.40920167 -176.45607976 95.78163744 -170.8125 84.25 C-170.28052002 83.15727783 -170.28052002 83.15727783 -169.73779297 82.04248047 C-156.98359741 56.16115965 -137.63604725 33.11502344 -113.89013672 16.63427734 C-108.08648774 12.76745129 -102.00770672 9.44003251 -95.8125 6.25 C-94.73613281 5.68539063 -93.65976563 5.12078125 -92.55078125 4.5390625 C-64.44582574 -9.35472981 -29.24934608 -11.4952083 0 0 Z M-69.6640625 66.0390625 C-86.89063214 78.21897512 -100.07353759 93.60925994 -108.96289062 112.72363281 C-119.69428095 137.1088849 -124.57466534 162.60952122 -122.50390625 189.21484375 C-120.58778822 205.37467106 -116.35513883 221.74660684 -106.875 235.1875 C-100.5170491 243.39985324 -93.65368792 250.23719073 -84.02734375 254.4765625 C-76.23138514 257.33199925 -68.19352924 259.12532367 -59.87255859 257.98388672 C-48.44152608 255.9279058 -38.07968065 251.71512869 -28.8125 244.625 C-10.26992447 228.90541273 1.686311 210.12409813 10.16967773 187.41503906 C12.94261148 179.55083295 14.5773154 171.41652599 16.1875 163.25 C16.37570312 162.39148438 16.56390625 161.53296875 16.7578125 160.6484375 C20.54197731 139.52591754 18.09043813 116.6763308 10.875 96.59765625 C7.67898831 88.59894222 3.70997287 81.85451006 -1.8125 75.25 C-2.47894531 74.44691406 -3.14539062 73.64382813 -3.83203125 72.81640625 C-9.77482494 66.27823063 -16.72482161 62.49244054 -24.8125 59.25 C-39.92877777 54.53405819 -56.39901408 57.71660746 -69.6640625 66.0390625 Z " fill="#383C9E" transform="translate(1610.8125,448.75)"/>
<path d="M0 0 C25.41 0 50.82 0 77 0 C90.68152367 33.06368221 90.68152367 33.06368221 95.57540894 45.97579956 C97.11431135 50.03543166 98.66722925 54.08970861 100.21875 58.14453125 C100.53041611 58.95986832 100.84208221 59.77520538 101.16319275 60.61524963 C104.53070736 69.41186114 107.97707985 78.17709604 111.4375 86.9375 C111.72293671 87.66030151 112.00837341 88.38310303 112.30245972 89.12780762 C113.86606002 93.08609622 115.43190289 97.04349022 117 101 C117.66 101 118.32 101 119 101 C119.36125977 100.40276123 119.72251953 99.80552246 120.09472656 99.19018555 C126.81774749 88.08530938 133.58043668 77.01197262 140.53710938 66.05175781 C144.14255605 60.36807277 147.70902474 54.66157194 151.25 48.9375 C151.77883789 48.082771 152.30767578 47.22804199 152.85253906 46.34741211 C155.59152127 41.9146713 158.32236949 37.47705192 161.04367065 33.03343201 C162.45363907 30.73125654 163.86512183 28.43001061 165.27648926 26.12869263 C166.27566272 24.49763349 167.27216042 22.86493613 168.26855469 21.23217773 C168.89793945 20.20552002 169.52732422 19.1788623 170.17578125 18.12109375 C170.72145752 17.2283374 171.26713379 16.33558105 171.8293457 15.41577148 C175.13118523 10.21995136 178.58515949 5.12226076 182 0 C207.74 0 233.48 0 260 0 C259.05936441 3.76254238 258.04185565 5.82067231 256.0078125 9.04296875 C255.39075439 10.02563721 254.77369629 11.00830566 254.13793945 12.02075195 C253.47366943 13.06577881 252.80939941 14.11080566 252.125 15.1875 C251.4446167 16.26668701 250.7642334 17.34587402 250.06323242 18.45776367 C245.75066425 25.28409379 241.39227139 32.08015451 236.98803711 38.84765625 C233.16678657 44.72151656 229.42154855 50.64150653 225.6862793 56.5703125 C221.848226 62.66109616 217.99180278 68.73992908 214.125 74.8125 C213.24751099 76.1905481 213.24751099 76.1905481 212.35229492 77.59643555 C211.1623553 79.46489671 209.97233223 81.33330475 208.78222656 83.20166016 C205.85345187 87.80023762 202.92682309 92.40018027 200 97 C198.83334387 98.83334004 197.6666772 100.66667337 196.5 102.5 C195.9225 103.4075 195.345 104.315 194.75 105.25 C188.33333333 115.33333333 181.91666667 125.41666667 175.5 135.5 C174.92209717 136.40814453 174.34419434 137.31628906 173.7487793 138.25195312 C172.5862238 140.07880287 171.42362638 141.90562594 170.26098633 143.73242188 C167.28106836 148.41473235 164.30195879 153.09755411 161.32421875 157.78125 C160.71513672 158.73902344 160.10605469 159.69679688 159.47851562 160.68359375 C158.33761157 162.47768715 157.19695929 164.27194071 156.05664062 166.06640625 C155.52619141 166.90042969 154.99574219 167.73445312 154.44921875 168.59375 C153.94037643 169.40675568 153.43153412 170.21976135 152.90727234 171.05740356 C151.59151927 173.08738649 150.21761105 175.0804375 148.79878235 177.0397644 C142.73485262 185.54261741 140.27082033 193.31525131 139.03125 203.6640625 C138.82494369 205.16372423 138.6154455 206.66294975 138.4030304 208.16175842 C137.95955701 211.33635093 137.53720663 214.5127121 137.13247681 217.69247437 C136.49768231 222.67969405 135.81668669 227.6599107 135.12768555 232.63989258 C134.42503961 237.73480819 133.72563562 242.83005828 133.04338074 247.92774963 C130.81923582 264.54368562 128.33240731 281.11399332 125.8125 297.6875 C124.554375 306.040625 123.29625 314.39375 122 323 C99.56 323 77.12 323 54 323 C54.63081735 314.79937439 55.33754048 306.93470889 56.6796875 298.87109375 C56.84827774 297.83062393 57.01686798 296.79015411 57.19056702 295.71815491 C57.74712456 292.29044845 58.31115262 288.86401412 58.875 285.4375 C59.27082977 283.0053004 59.66607974 280.57300637 60.06079102 278.140625 C60.91117578 272.90561167 61.764463 267.67108553 62.62060547 262.43701172 C64.70133459 249.71550081 66.77287195 236.99249798 68.8377037 224.26839733 C69.44339091 220.53714985 70.05047234 216.80614003 70.66082764 213.07565308 C70.8967771 211.63303759 71.13271877 210.19042082 71.36865234 208.74780273 C71.48300125 208.04909121 71.59735016 207.35037968 71.71516418 206.63049507 C72.47073367 202.00123504 73.20182955 197.36866911 73.92431641 192.73413086 C74.53669394 188.81011661 75.19477071 184.91114068 75.97802734 181.01782227 C76.95847276 175.84944811 77.39717942 171.49823626 76.02905273 166.33740234 C74.56950604 162.38461535 72.67439553 158.67948251 70.75 154.9375 C70.06098841 153.52413443 69.37620453 152.1087013 68.6953125 150.69140625 C67.24402282 147.68006777 65.7741201 144.67889529 64.29101562 141.68310547 C60.76060796 134.51457322 57.46114366 127.23869751 54.13479614 119.97393799 C52.61633663 116.66358599 51.08674105 113.35843053 49.55738831 110.05310059 C44.78621061 99.73851891 40.08381493 89.39361809 35.39715576 79.04043579 C30.41185919 68.03461982 25.31365074 57.08489529 20.16744995 46.15350342 C15.29559578 35.80315834 10.52749542 25.41196542 5.87841797 14.95947266 C4.21748584 11.2544584 2.49974537 7.57521402 0.77734375 3.8984375 C0 2 0 2 0 0 Z " fill="#383C9E" transform="translate(1660,440)"/>
<path d="M0 0 C1.59046296 -0.00577755 3.18091922 -0.01372952 4.77136183 -0.02363622 C9.09411443 -0.04430897 13.41630778 -0.0342848 17.73906112 -0.01870513 C22.41946614 -0.0073144 27.09978015 -0.02489232 31.78016663 -0.03860474 C40.93020018 -0.06075983 50.08002788 -0.05607054 59.23006928 -0.04154153 C66.67092895 -0.03021875 74.11173121 -0.0287315 81.55259705 -0.03416061 C83.14518705 -0.03530986 83.14518705 -0.03530986 84.7699506 -0.03648233 C86.92727937 -0.03808106 89.08460812 -0.03970213 91.24193686 -0.04134528 C111.43943211 -0.05558015 131.63681362 -0.03924562 151.83429021 -0.01234345 C169.13946166 0.00999324 186.44446536 0.00611248 203.74963379 -0.01693726 C223.87815944 -0.04373529 244.00658559 -0.05420706 264.13512659 -0.03887594 C266.28422195 -0.0372833 268.43331733 -0.03571145 270.58241272 -0.03416061 C271.63962398 -0.03338924 272.69683523 -0.03261786 273.78608319 -0.03182311 C281.21222585 -0.02751811 288.63830504 -0.0347667 296.06443787 -0.04655838 C305.1227268 -0.06062646 314.18079927 -0.05669321 323.23906362 -0.03015466 C327.85483539 -0.01707426 332.47024714 -0.01176469 337.0860157 -0.02840042 C341.32146615 -0.04343382 345.55622706 -0.03489446 349.79161602 -0.00851266 C351.3136128 -0.00298382 352.83566934 -0.00564016 354.35762686 -0.0178916 C366.28607801 -0.10645474 377.11725073 1.76843613 387.80116701 7.31310213 C397.33864734 12.9886975 405.33824454 20.16337603 411.03234863 29.72085571 C418.07976608 43.09839622 419.23141598 53.99965397 418.7467041 68.92202759 C418.39025615 74.31828045 416.92997375 78.81400518 414.56750488 83.63491821 C414.15500488 84.54886353 413.74250488 85.46280884 413.31750488 86.40444946 C408.39653334 96.4001729 401.14615456 104.31191756 391.94250488 110.50991821 C384.06551891 115.7281734 374.0340973 119.25695527 364.58261204 120.09980702 C360.42525177 120.27266823 356.29449665 120.30331942 352.13500977 120.26983643 C350.5445468 120.27561397 348.95409054 120.28356595 347.36364794 120.29347265 C343.04089534 120.31414539 338.71870199 120.30412122 334.39594865 120.28854156 C329.71554362 120.27715083 325.03522962 120.29472875 320.35484314 120.30844116 C311.20480959 120.33059626 302.05498188 120.32590697 292.90494049 120.31137796 C285.46408081 120.30005517 278.02327855 120.29856793 270.58241272 120.30399704 C268.98982271 120.30514629 268.98982271 120.30514629 267.36505917 120.30631875 C265.2077304 120.30791749 263.05040164 120.30953856 260.8930729 120.31118171 C240.69557766 120.32541658 220.49819615 120.30908204 200.30071956 120.28217988 C182.99554811 120.25984318 165.6905444 120.26372395 148.38537598 120.28677368 C128.25685032 120.31357171 108.12842418 120.32404349 87.99988317 120.30871236 C85.85078781 120.30711973 83.70169244 120.30554787 81.55259705 120.30399704 C80.49538579 120.30322566 79.43817453 120.30245428 78.34892657 120.30165953 C70.92278391 120.29735454 63.49670473 120.30460313 56.0705719 120.31639481 C47.01228297 120.33046288 37.95421049 120.32652963 28.89594615 120.29999109 C24.28017438 120.28691068 19.66476262 120.28160112 15.04899406 120.29823685 C10.81354362 120.31327024 6.57878271 120.30473088 2.34339374 120.27834909 C0.82139696 120.27282025 -0.70065958 120.27547659 -2.22261709 120.28772803 C-14.15106824 120.37629116 -24.98224096 118.50140029 -35.66615725 112.9567343 C-45.20363757 107.28113893 -53.20323478 100.10646039 -58.89733887 90.54898071 C-65.94475632 77.17144021 -67.09640621 66.27018246 -66.61169434 51.34780884 C-66.25524639 45.95155598 -64.79496399 41.45583125 -62.43249512 36.63491821 C-62.01999512 35.7209729 -61.60749512 34.80702759 -61.18249512 33.86538696 C-56.26152358 23.86966353 -49.01114479 15.95791886 -39.80749512 9.75991821 C-27.72470141 1.75544782 -14.15843603 -0.11397244 0 0 Z M-26.68249512 20.19741821 C-27.35723877 20.55110474 -28.03198242 20.90479126 -28.72717285 21.26919556 C-35.96289212 25.23304321 -41.04978126 29.83545557 -45.45593262 36.86148071 C-49.68826333 44.37154459 -52.17380742 51.95810161 -52.43249512 60.63491821 C-52.17239734 68.92553497 -49.46422811 76.19767047 -45.45593262 83.37319946 C-41.0768314 90.43217536 -35.97145779 95.0321008 -28.72717285 99.00064087 C-27.71505737 99.53117065 -27.71505737 99.53117065 -26.68249512 100.07241821 C-26.06382568 100.40290161 -25.44515625 100.73338501 -24.80773926 101.07388306 C-14.12327701 106.25529762 -1.78724262 105.92831649 9.82421875 105.8888855 C11.32347753 105.89119512 12.82273517 105.89437499 14.32199049 105.89833999 C18.40632361 105.90662776 22.49056232 105.90259035 26.57489562 105.89636755 C30.99350457 105.89181923 35.41209794 105.89883857 39.83070374 105.90432739 C48.47274884 105.91319774 57.1147591 105.91130992 65.75680554 105.90550211 C72.7834655 105.90097632 79.81011573 105.90037668 86.83677673 105.90254974 C88.33968878 105.90300944 88.33968878 105.90300944 89.87296268 105.90347843 C91.90869924 105.90411791 93.94443579 105.90476634 95.98017234 105.90542361 C115.04729035 105.91112 134.1143891 105.90457987 153.18150395 105.89382288 C169.52453604 105.884888 185.86753971 105.88644024 202.21057129 105.8956604 C221.21175431 105.90637526 240.21292046 105.91057074 259.21410608 105.90443587 C261.2421484 105.90379881 263.27019071 105.90317007 265.29823303 105.90254974 C266.29594096 105.90224119 267.29364889 105.90193264 268.32159039 105.90161474 C275.33581192 105.89989145 282.3500227 105.90279501 289.36424255 105.90750885 C297.91793957 105.91313119 306.47159991 105.91157282 315.02529275 105.90094736 C319.38538784 105.89570885 323.74542187 105.89360273 328.10551643 105.90024567 C332.10386765 105.90624511 336.10210174 105.90286476 340.10044247 105.89229056 C341.53970922 105.89007336 342.97898605 105.8911546 344.41824621 105.89604214 C356.22485447 105.93303144 368.1948163 105.74688996 378.81750488 100.07241821 C379.49224854 99.71873169 380.16699219 99.36504517 380.86218262 99.00064087 C388.09790189 95.03679322 393.18479102 90.43438085 397.59094238 83.40835571 C401.82327309 75.89829184 404.30881718 68.31173482 404.56750488 59.63491821 C404.3074071 51.34430145 401.59923788 44.07216595 397.59094238 36.89663696 C393.21184116 29.83766106 388.10646755 25.23773563 380.86218262 21.26919556 C380.18743896 20.91550903 379.51269531 20.56182251 378.81750488 20.19741821 C378.19883545 19.86693481 377.58016602 19.53645142 376.94274902 19.19595337 C366.25828678 14.01453881 353.92225238 14.34151993 342.31079102 14.38095093 C340.81153224 14.3786413 339.31227459 14.37546144 337.81301928 14.37149644 C333.72868615 14.36320866 329.64444744 14.36724608 325.56011415 14.37346888 C321.14150519 14.3780172 316.72291183 14.37099786 312.30430603 14.36550903 C303.66226093 14.35663869 295.02025067 14.35852651 286.37820423 14.36433432 C279.35154427 14.3688601 272.32489403 14.36945975 265.29823303 14.36728668 C263.79532099 14.36682698 263.79532099 14.36682698 262.26204708 14.366358 C260.22631053 14.36571851 258.19057398 14.36507009 256.15483743 14.36441281 C237.08771942 14.35871643 218.02062067 14.36525655 198.95350581 14.37601355 C182.61047373 14.38494843 166.26747005 14.38339619 149.92443848 14.37417603 C130.92325546 14.36346117 111.9220893 14.35926569 92.92090368 14.36540055 C90.89286137 14.36603762 88.86481905 14.36666636 86.83677673 14.36728668 C85.8390688 14.36759523 84.84136087 14.36790378 83.81341937 14.36822169 C76.79919785 14.36994498 69.78498707 14.36704142 62.77076721 14.36232758 C54.21707019 14.35670523 45.66340986 14.3582636 37.10971701 14.36888906 C32.74962193 14.37412758 28.3895879 14.3762337 24.02949333 14.36959076 C20.03114211 14.36359131 16.03290803 14.36697167 12.0345673 14.37754586 C10.59530055 14.37976307 9.15602371 14.37868183 7.71676356 14.37379429 C-4.0898447 14.33680499 -16.05980653 14.52294646 -26.68249512 20.19741821 Z " fill="#A6121E" transform="translate(784.4324951171875,869.3650817871094)"/>
<path d="M0 0 C3.960064 1.54159634 6.82377183 3.58415099 9.68359375 6.72265625 C14.47115354 13.49209865 16.99394319 21.80234138 18.25 29.9375 C18.36085938 30.64519531 18.47171875 31.35289062 18.5859375 32.08203125 C19.66513934 40.64272692 19.33441872 49.32679079 19.25 57.9375 C18.92 58.2675 18.59 58.5975 18.25 58.9375 C11.65 58.9375 5.05 58.9375 -1.75 58.9375 C-1.75 52.0075 -1.75 45.0775 -1.75 37.9375 C-7.36 37.9375 -12.97 37.9375 -18.75 37.9375 C-18.75 44.8675 -18.75 51.7975 -18.75 58.9375 C-25.35 58.9375 -31.95 58.9375 -38.75 58.9375 C-39.09246785 42.72735489 -39.15993869 26.44843502 -32.19140625 11.4296875 C-29.53822472 6.84234382 -26.47899742 3.54824582 -21.91015625 0.8515625 C-15.03083883 -2.21529066 -7.16427577 -1.96498876 0 0 Z M-14.75 6.9375 C-18.49675152 14.58711768 -17.9741368 21.56972606 -17.75 29.9375 C-12.47 29.9375 -7.19 29.9375 -1.75 29.9375 C-1.35424318 18.55486845 -1.35424318 18.55486845 -4.75 7.9375 C-6.40532623 6.91883771 -8.07260138 5.91939187 -9.75 4.9375 C-11.59046388 4.9375 -13.14629594 6.10978177 -14.75 6.9375 Z " fill="#A5111D" transform="translate(801.75,901.0625)"/>
<path d="M0 0 C5.94 0 11.88 0 18 0 C18 6.27 18 12.54 18 19 C18.99 18.67 19.98 18.34 21 18 C26.10171466 17.45643832 30.95889079 17.33073834 35.87109375 18.94140625 C39.69343622 20.75318522 42.53579162 22.52418641 45.5 25.5625 C48.70123969 30.76451449 49.61410241 34.84134959 50.03125 40.95703125 C49.98566348 45.39601835 49.0153758 48.03874411 47 52 C44.92596536 55.33326996 43.3531824 56.79818148 39.9375 58.75 C27.61703006 62.6612603 12.21819508 61 0 61 C0 40.87 0 20.74 0 0 Z M20 24 C19.34 24.66 18.68 25.32 18 26 C18 34.58 18 43.16 18 52 C19.32 52.99 20.64 53.98 22 55 C23.98 54.34 25.96 53.68 28 53 C30.20334582 49.15305359 30.28665249 46.13771832 30.32226562 41.78320312 C30.31904297 40.88537109 30.31582031 39.98753906 30.3125 39.0625 C30.32861328 38.16853516 30.34472656 37.27457031 30.36132812 36.35351562 C30.3643564 32.27442596 30.28607131 29.58905686 28.48046875 25.87109375 C27.99191406 25.25363281 27.50335937 24.63617187 27 24 C24.69 24 22.38 24 20 24 Z " fill="#A5111D" transform="translate(879,899)"/>
<path d="M0 0 C2.83100963 1.04418797 4.57834153 2.15492688 7 4 C9.48187418 9.08111496 10.36461314 12.70941086 10.29296875 18.46484375 C10.28872391 19.14301651 10.28447906 19.82118927 10.28010559 20.51991272 C10.26347941 22.65953402 10.22586174 24.79816947 10.1875 26.9375 C10.17243222 28.39907482 10.1587475 29.86066458 10.14648438 31.32226562 C10.11362977 34.88182397 10.06196241 38.44081556 10 42 C9.67 42.33 9.34 42.66 9 43 C3.39 43 -2.22 43 -8 43 C-8.33 42.67 -8.66 42.34 -9 42 C-9.33 31.77 -9.66 21.54 -10 11 C-12.40545638 9.79727181 -13.94996953 9.89928528 -16.625 9.9375 C-17.44226563 9.94652344 -18.25953125 9.95554687 -19.1015625 9.96484375 C-19.72804688 9.97644531 -20.35453125 9.98804688 -21 10 C-21.33 10.33 -21.66 10.66 -22 11 C-22.33 21.23 -22.66 31.46 -23 42 C-23.33 42.33 -23.66 42.66 -24 43 C-29.94 43 -35.88 43 -42 43 C-42 29.14 -42 15.28 -42 1 C-36.06 1 -30.12 1 -24 1 C-23.34 1.99 -22.68 2.98 -22 4 C-20.96875 3.34 -19.9375 2.68 -18.875 2 C-12.8758137 -0.99424628 -6.54147171 -0.80510421 0 0 Z " fill="#A5111D" transform="translate(865,917)"/>
<path d="M0 0 C3.17578125 1.15625 3.17578125 1.15625 6 3 C7.98 5.97 7.98 5.97 10 9 C10 20.22 10 31.44 10 43 C4.06 43 -1.88 43 -8 43 C-8.33 32.77 -8.66 22.54 -9 12 C-9.66 11.34 -10.32 10.68 -11 10 C-13.97 10 -16.94 10 -20 10 C-20.66 10.66 -21.32 11.32 -22 12 C-22.33 22.23 -22.66 32.46 -23 43 C-28.94 43 -34.88 43 -41 43 C-41.33 42.67 -41.66 42.34 -42 42 C-42 28.8 -42 15.6 -42 2 C-41.67 1.67 -41.34 1.34 -41 1 C-35.06 1 -29.12 1 -23 1 C-23 2.32 -23 3.64 -23 5 C-22.51273438 4.6390625 -22.02546875 4.278125 -21.5234375 3.90625 C-14.67011802 -0.57955912 -8.05125939 -1.13265079 0 0 Z " fill="#A5111D" transform="translate(1067,917)"/>
<path d="M0 0 C3.31873113 1.42149451 5.0903736 3.09491083 7.26171875 5.96875 C8.88025599 8.55413621 10.32079819 11.06188368 11.26171875 13.96875 C11.26171875 15.94875 11.26171875 17.92875 11.26171875 19.96875 C1.69171875 19.96875 -7.87828125 19.96875 -17.73828125 19.96875 C-16.83493861 26.66763579 -16.83493861 26.66763579 -14.73828125 32.96875 C-12.75828125 32.96875 -10.77828125 32.96875 -8.73828125 32.96875 C-8.07828125 32.30875 -7.41828125 31.64875 -6.73828125 30.96875 C-6.40828125 28.65875 -6.07828125 26.34875 -5.73828125 23.96875 C-5.40828125 23.63875 -5.07828125 23.30875 -4.73828125 22.96875 C0.21171875 22.96875 5.16171875 22.96875 10.26171875 22.96875 C10.75671875 23.95875 10.75671875 23.95875 11.26171875 24.96875 C7.37588656 33.97837861 7.37588656 33.97837861 3.44921875 37.46875 C-2.36338368 40.20409232 -6.94043551 41.19946451 -13.30078125 40.78125 C-19.26446663 40.07187664 -23.48836615 38.50278302 -28.48828125 35.09375 C-30.8568116 32.85680467 -32.28460133 30.87610984 -33.73828125 27.96875 C-35.01675868 23.59311597 -35.35130337 19.49243044 -34.73828125 14.96875 C-33.27720293 10.55275543 -31.37878144 6.63652692 -28.09375 3.296875 C-19.60042389 -3.22170486 -9.77874867 -3.23462437 0 0 Z M-14.73828125 3.96875 C-16.93966785 7.77302492 -16.93966785 7.77302492 -17.73828125 11.96875 C-13.77828125 11.96875 -9.81828125 11.96875 -5.73828125 11.96875 C-6.38472786 7.08660113 -6.38472786 7.08660113 -8.73828125 3.96875 C-10.71828125 3.96875 -12.69828125 3.96875 -14.73828125 3.96875 Z " fill="#A5111D" transform="translate(965.73828125,919.03125)"/>
<path d="M0 0 C3.55751042 1.27293217 5.56624085 2.93564081 8.07421875 5.7421875 C9.90966618 9.69813291 11.07421875 13.37035976 11.07421875 17.7421875 C5.46421875 17.7421875 -0.14578125 17.7421875 -5.92578125 17.7421875 C-6.58578125 14.7721875 -7.24578125 11.8021875 -7.92578125 8.7421875 C-8.58578125 8.0821875 -9.24578125 7.4221875 -9.92578125 6.7421875 C-11.57578125 7.0721875 -13.22578125 7.4021875 -14.92578125 7.7421875 C-16.65595165 12.2392574 -17.1967186 15.99433102 -17.17578125 20.8046875 C-17.1809375 21.99191406 -17.18609375 23.17914062 -17.19140625 24.40234375 C-16.93439381 27.63389721 -16.34731694 29.85137797 -14.92578125 32.7421875 C-14.43078125 33.2371875 -14.43078125 33.2371875 -13.92578125 33.7421875 C-11.94578125 33.7421875 -9.96578125 33.7421875 -7.92578125 33.7421875 C-7.26578125 31.1021875 -6.60578125 28.4621875 -5.92578125 25.7421875 C-0.31578125 25.7421875 5.29421875 25.7421875 11.07421875 25.7421875 C9.70143359 30.24187219 8.69897323 33.05648136 5.51171875 36.5546875 C1.45641615 39.50127436 -3.00778943 40.95078652 -7.92578125 41.7421875 C-14.50808567 41.88685353 -20.13731061 40.86796165 -25.92578125 37.7421875 C-29.2595656 35.64888105 -31.29687029 33.49089816 -33.23828125 30.1171875 C-35.02467554 26.16369195 -35.57106666 22.65811181 -35.37109375 18.33203125 C-34.55432227 13.58186026 -32.69351741 9.66721385 -29.92578125 5.7421875 C-26.8281077 2.60036658 -23.64039836 1.02009415 -19.55078125 -0.5703125 C-12.91759322 -1.82833092 -6.55892217 -1.67120879 0 0 Z " fill="#A6111D" transform="translate(1143.92578125,918.2578125)"/>
<path d="M0 0 C5.94 0 11.88 0 18 0 C18.33 0.99 18.66 1.98 19 3 C19.825 2.505 20.65 2.01 21.5 1.5 C24.8474444 0.06538097 27.32932459 -0.43077487 30.96484375 -0.3046875 C34.30873865 0.195934 36.98512531 1.49256266 40 3 C41.5 5.125 41.5 5.125 43 8 C43 9.98 43 11.96 43 14 C38.38 14 33.76 14 29 14 C28.67 12.68 28.34 11.36 28 10 C25.29120665 8.64560332 22.99066732 8.93498549 20 9 C19.67 9.33 19.34 9.66 19 10 C18.67 20.56 18.34 31.12 18 42 C12.06 42 6.12 42 0 42 C-0.33 41.67 -0.66 41.34 -1 41 C-1 27.8 -1 14.6 -1 1 C-0.67 0.67 -0.34 0.34 0 0 Z " fill="#A5111D" transform="translate(980,918)"/>
<path d="M0 0 C6.6 0 13.2 0 20 0 C20 13.2 20 26.4 20 40 C13.4 40 6.8 40 0 40 C0 26.8 0 13.6 0 0 Z " fill="#A5111D" transform="translate(1083,920)"/>
<path d="M0 0 C3.875 3.75 3.875 3.75 5 6 C5.039992 7.99960012 5.04346799 10.00047242 5 12 C3.35 13.98 1.7 15.96 0 18 C-2.97 18 -5.94 18 -9 18 C-12.875 14.25 -12.875 14.25 -14 12 C-14.04022391 9.6670134 -14.04320247 7.33293334 -14 5 C-12.68 3.35 -11.36 1.7 -10 0 C-6.30581799 -1.231394 -3.7943739 -0.64432764 0 0 Z M-10 5 C-10.33 6.65 -10.66 8.3 -11 10 C-10.34 10.66 -9.68 11.32 -9 12 C-9 9.69 -9 7.38 -9 5 C-9.33 5 -9.66 5 -10 5 Z M0 5 C-0.33 6.98 -0.66 8.96 -1 11 C-0.01 11.495 -0.01 11.495 1 12 C1.33 10.68 1.66 9.36 2 8 C1.34 7.01 0.68 6.02 0 5 Z M-5 12 C-5 12.66 -5 13.32 -5 14 C-5.99 14.495 -5.99 14.495 -7 15 C-5.68 14.67 -4.36 14.34 -3 14 C-3.66 13.34 -4.32 12.68 -5 12 Z " fill="#A6121E" transform="translate(1166,902)"/>
<path d="M0 0 C6.6 0 13.2 0 20 0 C20 4.29 20 8.58 20 13 C13.4 13 6.8 13 0 13 C0 8.71 0 4.42 0 0 Z " fill="#A5121D" transform="translate(1083,901)"/>
</svg>
